<svg xmlns="http://www.w3.org/2000/svg" width="420.241" height="334" viewBox="0 0 420.241 334">
  <g id="Group_301" data-name="Group 301" transform="translate(-36.422 -70.822)">
    <g id="Group_230" data-name="Group 230" transform="translate(54.027 86.647)">
      <path id="Path_628" data-name="Path 628" d="M144.456,200.928H63.707c-12.176,0-12.328-13.846-1.521-16.631A22.527,22.527,0,0,1,81.2,187.985s2.932-34.031,30.728-30.035c21.914,3.149,20.641,25.025,20.641,25.025s4.51-9,16.331-5.6C161.231,180.934,159.894,200.928,144.456,200.928Z" transform="translate(-54.316 -88.05)" fill="#c9f1f4"/>
      <path id="Path_629" data-name="Path 629" d="M306.476,127.773h76.2c11.49,0,11.634-13.066,1.434-15.694a21.258,21.258,0,0,0-17.939,3.48s-2.767-32.113-29-28.343C316.5,90.188,317.7,110.832,317.7,110.832s-4.256-8.5-15.412-5.281C290.646,108.9,291.908,127.773,306.476,127.773Z" transform="translate(-58.197 -86.907)" fill="#c9f1f4"/>
    </g>
    <g id="Group_232" data-name="Group 232" transform="translate(322.106 145.958)">
      <g id="Group_231" data-name="Group 231">
        <path id="Path_630" data-name="Path 630" d="M352.246,147.192s3.289,1.067,7.958,8.207,14.445,33.427,14.445,33.427l-32.509,4.552S329.4,162.167,328.5,160.866a10.62,10.62,0,0,1-1.7-4.229l3.528-4.141Z" transform="translate(-326.799 -147.192)" fill="#ffb41d"/>
        <path id="Path_631" data-name="Path 631" d="M352.459,168.42q.322-.686.645-1.372c.811-1.726-.437-6.2,1.322-6.516,1.594-.284,12.329,18.236,11.753,18.791-.241.231-4.465-4.466-4.777-4.347-1.661.634-3.731-3-5.5-3.187a3.466,3.466,0,0,1-2.873-1.528" transform="translate(-327.214 -147.408)" fill="#f9d8cd" opacity="0.61"/>
      </g>
      <path id="Path_632" data-name="Path 632" d="M376.909,195.03s.489,10.91.4,14.955c-.061,2.886-.08,9.118-.431,12.17a3.805,3.805,0,0,0,.388,2.155h0a37.29,37.29,0,0,1,3.61,11.224l1.727,11.235L368.79,248.58l-10.235-33.391s3.417-13.484,4.493-13.56S376.909,195.03,376.909,195.03Z" transform="translate(-327.312 -147.965)" fill="#ffb41d"/>
    </g>
    <g id="Group_234" data-name="Group 234" transform="translate(46.487 288.59)">
      <path id="Path_633" data-name="Path 633" d="M154.344,359.305a48.281,48.281,0,0,0,.217-23.965l-8.787.979a45.461,45.461,0,0,0-5.112-12.6l6.973-5.573a48.269,48.269,0,0,0-16.793-17.1l-5.571,6.969a45.479,45.479,0,0,0-12.471-5.363l.989-8.864a48.254,48.254,0,0,0-23.966-.217l.984,8.824a45.4,45.4,0,0,0-12.615,5.057l-5.56-6.956a48.27,48.27,0,0,0-17.1,16.793l6.916,5.529a45.415,45.415,0,0,0-5.369,12.506l-8.806-.982a48.254,48.254,0,0,0-.217,23.966l8.758-.977A45.4,45.4,0,0,0,61.9,369.968L54.982,375.5a48.269,48.269,0,0,0,16.793,17.1l5.5-6.884a45.5,45.5,0,0,0,12.524,5.4l-.975,8.742a48.253,48.253,0,0,0,23.966.217l-.97-8.7a45.415,45.415,0,0,0,12.67-5.094l5.491,6.869a48.267,48.267,0,0,0,17.1-16.793l-6.863-5.486a45.439,45.439,0,0,0,5.349-12.546Zm-24.961-11.5a28.089,28.089,0,1,1-28.991-29A28.187,28.187,0,0,1,129.383,347.81Z" transform="translate(-46.652 -292.167)" fill="#bcdddd"/>
      <g id="Group_233" data-name="Group 233" transform="translate(19.771 19.771)">
        <path id="Path_634" data-name="Path 634" d="M101.618,382.035a34.887,34.887,0,0,1-34.851-36.024,34.929,34.929,0,0,1,33.728-33.729A34.888,34.888,0,0,1,136.5,348.293l-.309-.009.309.009a34.925,34.925,0,0,1-33.723,33.723Q102.2,382.034,101.618,382.035Zm.035-69.154q-.568,0-1.139.018a34.311,34.311,0,0,0-33.131,33.131,34.271,34.271,0,0,0,35.376,35.37,34.268,34.268,0,0,0,23.1-58.482A33.936,33.936,0,0,0,101.654,312.881Z" transform="translate(-66.748 -312.263)" fill="#c9f1f4"/>
      </g>
    </g>
    <g id="Group_244" data-name="Group 244" transform="translate(82.001 224.492)">
      <path id="Path_635" data-name="Path 635" d="M145.563,407.452c0,1.527-14.061,2.767-31.407,2.767s-31.406-1.24-31.406-2.767,14.061-2.769,31.406-2.769S145.563,405.923,145.563,407.452Z" transform="translate(-82.75 -229.888)" fill="#e0e0e0"/>
      <g id="Group_243" data-name="Group 243" transform="translate(3.056)">
        <g id="Group_238" data-name="Group 238" transform="translate(30.367 30.659)">
          <g id="Group_237" data-name="Group 237" transform="translate(34.078 5.977)">
            <g id="Group_236" data-name="Group 236">
              <g id="Group_235" data-name="Group 235">
                <path id="Path_636" data-name="Path 636" d="M151.36,273c.682-.506,2.143-1.707,2.377-2.51.108-.373.775-1.548,1.345-2.646a21.187,21.187,0,0,1,1.447-2.224c.39-.481.912-1.634,1.317-1.3.5.41-.125,1.6-.474,2.328a2.863,2.863,0,0,0-.307.829.84.84,0,0,0,.183.733c.1.124.738.132.947.1a9.792,9.792,0,0,0,3.429-.718,13.454,13.454,0,0,0,2.252-1.262,2.039,2.039,0,0,1,.854-.491c.214-.039.53.029.524.246a6.059,6.059,0,0,1-1.012,1.186c-.694.589.032.087-.662.676a.576.576,0,0,0-.24.339,1.606,1.606,0,0,0,.06.349.844.844,0,0,1-.239.574,9.777,9.777,0,0,1-.737.837c-.364.371-.018.631-.421.964-.444.367-1.64.8-2.1,1.153a7.4,7.4,0,0,1-1.145.766,9.336,9.336,0,0,1-1.559.543c-1.448.432-2.1,1.619-3.275,2.61" transform="translate(-151.36 -264.254)" fill="#feaf84"/>
              </g>
              <path id="Path_637" data-name="Path 637" d="M158.19,273.268a13.17,13.17,0,0,0,3.247-1.208c1.415-.814,3.221-1.613,4.112-2.729a.592.592,0,0,0,.094-.429,1.2,1.2,0,0,0-1.04.071c-.429.232-2.527,1.282-2.527,1.282" transform="translate(-151.47 -264.327)" fill="#feaf84"/>
              <path id="Path_638" data-name="Path 638" d="M157.761,272.658a21.915,21.915,0,0,0,3.72-1.506c1.415-.814,3.825-1.909,4.649-3.1a.5.5,0,0,0,.029-.378,1.2,1.2,0,0,0-1.039.071c-.43.232-3,1.6-3,1.6" transform="translate(-151.463 -264.307)" fill="#feaf84"/>
              <path id="Path_639" data-name="Path 639" d="M158.4,271.226a21.956,21.956,0,0,0,3.72-1.507,19.067,19.067,0,0,0,4.173-2.744.366.366,0,0,0,.033-.414,1.2,1.2,0,0,0-1.04.071c-.429.233-2.527,1.282-2.527,1.282" transform="translate(-151.474 -264.29)" fill="#feaf84"/>
            </g>
          </g>
          <path id="Path_640" data-name="Path 640" d="M155.793,274.867a7.681,7.681,0,0,0-.521-1.077,6.724,6.724,0,0,0-2.938-2.9s-6.869,5.144-9.74,6.759c-.252.135-.53.286-.808.43,0,0-.067.041-.194.109a65.571,65.571,0,0,0-7.963,4.183c-2-6.465-5.084-19.79-9.537-23.317l-.008-.009a3.23,3.23,0,0,0-3.612-.538s-6.659,4.529-2.23,15.8a37.721,37.721,0,0,0,5.682,9.748,38.7,38.7,0,0,0,6.03,6.044h0s2.1,2.1,4.1,1.945a8.335,8.335,0,0,0,3.983-1.877h0C143.56,286.452,155.793,274.867,155.793,274.867Z" transform="translate(-116.722 -258.178)" fill="#e65125"/>
          <path id="Path_641" data-name="Path 641" d="M155.91,275.074a7.869,7.869,0,0,0-.52-1.077c-2.228,2.238-11.413,10.464-16.113,13.952-5.138,3.81-6.711,2.807-6.711,2.807a5.12,5.12,0,0,1-.888-.524,6.572,6.572,0,0,1-2.622-5.438,106.645,106.645,0,0,0-.814-13.613s-2.668,8.19-4.2,13.09a38.7,38.7,0,0,0,6.03,6.044h0s2.1,2.1,4.1,1.945a8.335,8.335,0,0,0,3.983-1.877l-.008,0C143.67,286.67,155.91,275.074,155.91,275.074Z" transform="translate(-116.841 -258.389)" opacity="0.08"/>
        </g>
        <path id="Path_642" data-name="Path 642" d="M122.587,234.338s2.039,3.42-.243,6.05-4.5-4.1-4.5-4.1Z" transform="translate(-86.373 -227.134)" fill="#301b2c"/>
        <path id="Path_643" data-name="Path 643" d="M97.543,264.843a36.393,36.393,0,0,0,.671,5.687,102.268,102.268,0,0,0,5.166,17.134,13.859,13.859,0,0,1,.624,8c-1.181,5.308.16,5.658.16,5.658s7.188,4.562,13.167,6.423c3.807,1.19,7.122,1.143,7.727-2.22a5.08,5.08,0,0,0,.076-.548c.708-.142.661-.869.6-1.162-.019-.095-.047-.331-.076-.6-.056-.415-.1-.916-.1-1.076-.208-10.626,1.587-10.078,2.134-21.98.568-12.213-.214-17.691-3.4-20.693a12.416,12.416,0,0,0-7.359-3.66c-3.208-.551-7.031.317-11.132,1.287C99.545,258.572,97.5,260.225,97.543,264.843Z" transform="translate(-86.045 -227.479)" fill="#e65125"/>
        <path id="Path_644" data-name="Path 644" d="M97.543,264.979a36.4,36.4,0,0,0,.671,5.687A102.276,102.276,0,0,0,103.38,287.8a13.859,13.859,0,0,1,.624,8c-1.181,5.308.16,5.658.16,5.658s7.188,4.562,13.167,6.423l5.582-.529,2.145-1.69a5.077,5.077,0,0,0,.076-.548c-4.87.23-14.707-3.277-16.7-4.033a3.231,3.231,0,0,1-2.032-3.59,47.372,47.372,0,0,0,.775-7.405c-.02-2.343-1.106-6.3-1.993-9.153a18.6,18.6,0,0,1-.747-6.763,59.435,59.435,0,0,0,0-7.707l-4.429-2.4Z" transform="translate(-86.045 -227.615)" opacity="0.08"/>
        <path id="Path_645" data-name="Path 645" d="M103.353,311.056c-.512.084-1.82-2.212-1.82-2.212l.549-.728a2.446,2.446,0,0,1,1.236-.866l.089-.028a1.053,1.053,0,0,1,1.184.406c.376.557.955,1.192,1.629,1.168h.012a.152.152,0,0,0,.072.012C106.9,308.821,103.865,310.974,103.353,311.056Z" transform="translate(-86.11 -228.312)" fill="#f4d5b5"/>
        <g id="Group_239" data-name="Group 239" transform="translate(19.723 4.011)">
          <path id="Path_646" data-name="Path 646" d="M121.232,253.476a14.717,14.717,0,0,1-3.919.071c-.01.132.03.731.082,1.319.01.072.01.143.02.214.041.579.091,1.1.091,1.1l-.436,3.259-2.762-1.239-4.1-1.187s-.132-2.964-.273-4.325a4.8,4.8,0,0,0-.092-.6c-.112-.406-1.645-3.289-2.762-6.1a16.237,16.237,0,0,1-1.147-3.929,3.363,3.363,0,0,1-.031-.436c0-.771.011-1.553.051-2.305.122-2.182.527-4.192,1.888-5.319,1.827-1.533,14.324-6.772,14.68,2.274v.04s.091.711.2,1.848c.082.792.172,1.787.244,2.884C123.313,245.944,123.415,252.978,121.232,253.476Z" transform="translate(-105.903 -231.093)" fill="#feaf84"/>
        </g>
        <path id="Path_647" data-name="Path 647" d="M117.524,255.434a15.7,15.7,0,0,1-4.562-2.248,19.831,19.831,0,0,0,4.462.716c-.009.134.033.732.084,1.321C117.516,255.29,117.516,255.366,117.524,255.434Z" transform="translate(-86.294 -227.439)" fill="#f29d77"/>
        <path id="Path_648" data-name="Path 648" d="M117.03,262.166s1.453,22.7.215,30.764c0,0,1.616,4.348,2.664,4.717s1.812-2.2,2.838-4.985-3.763-30.691-3.763-30.691Z" transform="translate(-86.36 -227.581)" fill="#ffb41d"/>
        <path id="Path_649" data-name="Path 649" d="M115.8,260.684l1.209,1.429,1.955-.2a20.691,20.691,0,0,0,.141-2.48,4.357,4.357,0,0,0-1.88-.685Z" transform="translate(-86.34 -227.529)" fill="#ffb41d"/>
        <path id="Path_650" data-name="Path 650" d="M110.1,254.828a5.289,5.289,0,0,0-1.749,1.728,22,22,0,0,1,2.15,1.125c.914.558,5.309,3.662,5.309,3.662l1.292-2.653S112.589,255.524,110.1,254.828Z" transform="translate(-86.22 -227.466)" fill="#e65125"/>
        <path id="Path_651" data-name="Path 651" d="M117.249,258.695a3.673,3.673,0,0,1,2.011,1.673s.786-1.506-.218-4.188a6.956,6.956,0,0,0-1.476-1.051Z" transform="translate(-86.364 -227.47)" fill="#e65125"/>
        <path id="Path_652" data-name="Path 652" d="M104.827,307.308a9.109,9.109,0,0,0,1.06,1.159c.242.134.283-.15.192-.349S104.863,307.038,104.827,307.308Z" transform="translate(-86.163 -228.313)" fill="#e5bb98"/>
        <path id="Path_653" data-name="Path 653" d="M100.939,395.17s.33,5.909.332,6.689c0,.44,2.9.923,4.239,0,.13-2.174.814-6.68.858-7.971" transform="translate(-86.1 -229.713)" fill="#ffbe9d"/>
        <path id="Path_654" data-name="Path 654" d="M101.288,328.378s-8.187-13.969,2.89-26.3c0,0,7.622,3.412,13.724,3.823a30.169,30.169,0,0,0,7.246-.173,122.492,122.492,0,0,1,1.643,23.959Z" transform="translate(-86.059 -228.229)" fill="#094165"/>
        <path id="Path_655" data-name="Path 655" d="M118.953,393.148l.722,8.732,2.226.965,2-1,.329-7.754" transform="translate(-86.391 -229.701)" fill="#ffbe9d"/>
        <path id="Path_656" data-name="Path 656" d="M127.083,360.019c-.329,7.541-2.464,21.886-2.452,37.3-2.11,1.261-4.777.972-5.807.2-1.595-13.3-5.922-26.989-1.312-38.4-1.818-6.839-4.727-21.347-5.876-28.056a3.619,3.619,0,0,0-.059-.376l1.056-3.108c-.293-8.492,5.243-14.72,10.967-12.562,1.255.469,3.139,4.089,3.326,6.693.152,2.064.04,33.877.087,34.628a18.055,18.055,0,0,1,.035,2.369A11.809,11.809,0,0,1,127.083,360.019Z" transform="translate(-86.272 -228.431)" fill="#094165"/>
        <path id="Path_657" data-name="Path 657" d="M117.854,385.338c1.066,11.236.972,12.246.972,12.246-1.509-12.586-5.4-24.6-1.976-36.469a7.876,7.876,0,0,0,.117-4.077c-1.809-7.382-4.291-19.84-5.33-25.911l1.525-1.232s2.474-10.767,3.061-11.131-.105,3.66-.469,8.645-1.173,8.034.071,14,3.529,14.128,4,17.483C118.045,364.1,116.775,374.09,117.854,385.338Z" transform="translate(-86.273 -228.499)" fill="#606060" opacity="0.35"/>
        <g id="Group_241" data-name="Group 241" transform="translate(12.706 86.484)">
          <g id="Group_240" data-name="Group 240">
            <path id="Path_658" data-name="Path 658" d="M111.045,359.814c-1.369,7.481-4.244,29.229-4.73,37.862-.231,1.441-4.99,1.183-5.846.522-.029-.093-.04-2.544-.046-2.661-.2-10.1-3.128-28.467,1.216-37.779C104.283,352.087,112.524,351.776,111.045,359.814Z" transform="translate(-98.779 -315.546)" fill="#094165"/>
            <path id="Path_659" data-name="Path 659" d="M113.8,329.2c-.286-9.9-4.888-17.1-10.387-13.2-2.315,1.641-5.054,2.951-4.595,5.514.8,4.471,2.792,31.062,2.7,35.957-.21,11.035,8.662,6.907,9.22,3.794C112.149,353.4,113.96,334.594,113.8,329.2Z" transform="translate(-98.771 -314.921)" fill="#094165"/>
          </g>
        </g>
        <path id="Path_660" data-name="Path 660" d="M118.945,407.168a.353.353,0,0,0,.341.235h13.029c.78.042,1.253-.253,1.3-.609.076-.569-.459-.786-.745-.891,0,0-6.912-2.929-7.262-3.091l-1.715-.822a9.414,9.414,0,0,1-2.2.3,13.331,13.331,0,0,1-2.024-.269A5.342,5.342,0,0,0,118.945,407.168Z" transform="translate(-86.385 -229.844)" fill="#001118"/>
        <path id="Path_661" data-name="Path 661" d="M100.548,407.168a.352.352,0,0,0,.341.235h13.029c.78.042,1.253-.253,1.3-.609.076-.569-.459-.786-.744-.891,0,0-6.912-2.929-7.263-3.091l-1.715-.822a9.4,9.4,0,0,1-2.2.3,13.353,13.353,0,0,1-2.025-.269A5.343,5.343,0,0,0,100.548,407.168Z" transform="translate(-86.088 -229.844)" fill="#001118"/>
        <path id="Path_662" data-name="Path 662" d="M122.493,236.241a4.9,4.9,0,0,1-1.746,1.218h-.011c-1.644.741-4.314,1.279-8.476,1.411,0,0-.833.274-.62,1.99.031.2.071.426.122.66.538,2.314,1.289,4.456.223,4.314-1.259-.152-1.8-4.985-3.7-3.36-.67.579-.528,1.614-.345,2.476a12.345,12.345,0,0,0,.771,2.355A12.309,12.309,0,0,1,110.2,252.2c-.021.315-.153.426-.294.457a.716.716,0,0,1-.4-.03c-.294-.092-.619-1.147-1.218-2.223a41.547,41.547,0,0,1-2.985-6.568c-.193-.538-.375-1.076-.527-1.6q-.2-.641-.335-1.279v-.011c-.771-3.411-.294-6.629,3.848-9.644,5.289-3.858,12.426-.813,12.426-.813S124.584,233.774,122.493,236.241Z" transform="translate(-86.152 -227.054)" fill="#39383e"/>
        <path id="Path_663" data-name="Path 663" d="M99.771,326,87.4,307.817l23.933-18.64,12.369,18.18Z" transform="translate(-85.881 -228.021)" fill="#c98455"/>
        <path id="Path_664" data-name="Path 664" d="M123.677,307.361l-14.824,11.549-.337.261-8.771,6.835L85.856,308.17l9.175-7.147,2.029-1.574,12.728-9.916Z" transform="translate(-85.856 -228.026)" fill="#e59a67"/>
        <path id="Path_665" data-name="Path 665" d="M109,319.073l-.336.261a19.382,19.382,0,0,1-1.162-1.708,5.043,5.043,0,0,1-.479-1.625l-.606-.614h-.455s-.918-.6-4.285-4.774a101.534,101.534,0,0,1-6.5-9.427l2.03-1.574,7.458,7.576Z" transform="translate(-86.007 -228.189)" fill="#d38e5f"/>
        <path id="Path_666" data-name="Path 666" d="M106.605,314.41a8.642,8.642,0,0,1,1.584,2.693c.2.762,2.434-2.375,2.434-2.375l-1.65-2.5" transform="translate(-86.192 -228.393)" fill="#feaf84"/>
        <path id="Path_667" data-name="Path 667" d="M100.128,259.249s-6.418,1.3-9.811,31.293l7.108,3.391s7.835-23.778,7.046-28.333S103.52,258.654,100.128,259.249Z" transform="translate(-85.928 -227.536)" fill="#e65125"/>
        <path id="Path_668" data-name="Path 668" d="M90.317,290.926s7.045,15.026,16.025,23.59l2.956-2.047s-5.559-15.206-12.256-23.911S90.317,290.926,90.317,290.926Z" transform="translate(-85.928 -227.957)" fill="#e65125"/>
        <path id="Path_669" data-name="Path 669" d="M113.285,315.954l-.426.333a11.05,11.05,0,0,0-2.484-1.517.818.818,0,0,0-.257-.236c.494-.219,1.166-.559.609-.57-.822-.015-1.04-.441-1.04-.441l-.767.386.553.581a4.1,4.1,0,0,0-1.506,1.282l-.239-.311a4.873,4.873,0,0,0,.153,1.657,11.647,11.647,0,0,0,1.04,2.183l0-.011c.1.2.662.833,1.046.833a.8.8,0,0,0,.629-.375c.157-.15.292-.044.556-.211s.246-.4.5-.619c.128-.108.494-.073.754-.193s.337-.48.494-.6c.312-.238.611-.158.826-.589S113.285,315.954,113.285,315.954Z" transform="translate(-86.21 -228.414)" fill="#feaf84"/>
        <path id="Path_670" data-name="Path 670" d="M109.228,313.647a.918.918,0,0,1,.745.054,8.1,8.1,0,0,1,1.739.6,19.687,19.687,0,0,1,2.476,1.766c.14.247-.141.6-.93.581a18.906,18.906,0,0,1-3.771-1.6" transform="translate(-86.234 -228.415)" fill="#feaf84"/>
        <path id="Path_671" data-name="Path 671" d="M122.945,241.114a21.482,21.482,0,0,1-10.578-.335c-.223.061-.467.122-.721.183-1.787.437-4.223.893-5.736,1.167-.487.092-.883.163-1.126.2q-.2-.641-.336-1.279v-.011c.143-.355.3-.71.305-.781a9.669,9.669,0,0,1,1.178-.874c.619-.426,1.289-.873,1.472-1,.345-.274,7.583-2.72,7.705-2.72.081,0,3.3,1.106,5.633,1.9h.011c.822.284,1.523.538,1.949.67C122.783,239.023,122.873,240.017,122.945,241.114Z" transform="translate(-86.157 -227.156)" fill="#feaf84" opacity="0.43"/>
        <g id="Group_242" data-name="Group 242" transform="translate(17.335)">
          <path id="Path_672" data-name="Path 672" d="M123.769,235.4h0c-.46-2.329-2.406-8.758-9.825-8.123-11,.943-11.253,8.161-9.892,13.511h0a.782.782,0,0,0-.34.828.65.65,0,0,0,.675.357,18.931,18.931,0,0,0,2.759-.525c4.111-.836,11.837-2.624,16.353-5.011a.5.5,0,0,0,.4-.212C124.427,235.616,123.769,235.4,123.769,235.4Z" transform="translate(-103.476 -227.02)" fill="#ffb41d"/>
          <path id="Path_673" data-name="Path 673" d="M108.159,228.753s8.324-2.069,11.246,9.457a19.4,19.4,0,0,0,3.3-1.292s-1.771-8.924-8.689-9.644C114.02,227.275,110.474,226.1,108.159,228.753Z" transform="translate(-103.552 -227.016)" fill="#ffbf4d"/>
          <path id="Path_674" data-name="Path 674" d="M111.705,240.18a22.242,22.242,0,0,0,12.28-.022s4.667-1.393.047-3.783Z" transform="translate(-103.609 -227.167)" fill="#ffb41d"/>
        </g>
      </g>
    </g>
    <g id="Group_247" data-name="Group 247" transform="translate(36.423 367.127)">
      <g id="Group_245" data-name="Group 245" transform="translate(314.132 0)">
        <path id="Path_675" data-name="Path 675" d="M388.116,406.331H360.088l.252-.867,4.72-16.043.893-3.02.516-1.772.893-3.02,1.72-5.859a5.231,5.231,0,0,1,10.037,0l1.72,5.859.892,3.02.518,1.772.892,3.02,4.72,16.043Z" transform="translate(-355.787 -371.995)" fill="#ffb41d"/>
        <path id="Path_676" data-name="Path 676" d="M391.262,409.066H356.8a1.087,1.087,0,0,1-1.086-1.087h0a1.086,1.086,0,0,1,1.086-1.086h34.46a1.087,1.087,0,0,1,1.086,1.086h0A1.087,1.087,0,0,1,391.262,409.066Z" transform="translate(-355.716 -372.559)" fill="#ffb41d"/>
        <path id="Path_677" data-name="Path 677" d="M381.837,384.786H366.575l.892-3.02h13.477Z" transform="translate(-355.891 -372.153)" fill="#ffc969"/>
        <path id="Path_678" data-name="Path 678" d="M383.224,389.657H365.142l.892-3.02h16.3Z" transform="translate(-355.868 -372.232)" fill="#ffc969"/>
        <path id="Path_679" data-name="Path 679" d="M388.115,406.881H360.088l.252-.867h27.523Z" transform="translate(-355.787 -372.545)" fill="#ff8f1f"/>
      </g>
      <g id="Group_246" data-name="Group 246" transform="translate(0 0)">
        <path id="Path_680" data-name="Path 680" d="M68.823,406.331H40.795l.252-.867,4.721-16.043.892-3.02.517-1.772.892-3.02,1.72-5.859a5.231,5.231,0,0,1,10.037,0l1.72,5.859.892,3.02.518,1.772.892,3.02,4.721,16.043Z" transform="translate(-36.494 -371.995)" fill="#ffb41d"/>
        <path id="Path_681" data-name="Path 681" d="M71.969,409.066H37.509a1.087,1.087,0,0,1-1.086-1.087h0a1.086,1.086,0,0,1,1.086-1.086h34.46a1.086,1.086,0,0,1,1.086,1.086h0A1.087,1.087,0,0,1,71.969,409.066Z" transform="translate(-36.423 -372.559)" fill="#ffb41d"/>
        <path id="Path_682" data-name="Path 682" d="M62.545,384.786H47.283l.892-3.02H61.652Z" transform="translate(-36.599 -372.153)" fill="#ffc969"/>
        <path id="Path_683" data-name="Path 683" d="M63.931,389.657H45.85l.892-3.02h16.3Z" transform="translate(-36.575 -372.232)" fill="#ffc969"/>
        <path id="Path_684" data-name="Path 684" d="M68.823,406.881H40.795l.252-.867H68.57Z" transform="translate(-36.494 -372.545)" fill="#ff8f1f"/>
      </g>
    </g>
    <g id="Group_248" data-name="Group 248" transform="translate(171.653 85.006)">
      <path id="Path_685" data-name="Path 685" d="M247.5,119.406l-2.848-11.8-4.94,1.193A31.728,31.728,0,0,0,232.2,98.475l2.642-4.325-10.355-6.327-2.641,4.322a31.735,31.735,0,0,0-12.619-1.973l-1.19-4.933-11.8,2.848,1.191,4.933a31.733,31.733,0,0,0-10.33,7.513l-4.32-2.64-6.327,10.355,4.322,2.641a31.754,31.754,0,0,0-1.969,12.618l-4.937,1.192,2.848,11.8,4.938-1.192a31.75,31.75,0,0,0,7.51,10.326l-2.643,4.325,10.355,6.327,2.644-4.326a31.744,31.744,0,0,0,12.614,1.965l1.193,4.945,11.8-2.848-1.194-4.945a31.74,31.74,0,0,0,10.325-7.5l4.328,2.645,6.327-10.356-4.327-2.643a31.747,31.747,0,0,0,1.97-12.614Zm-31.4,25.071a23.066,23.066,0,1,1,17-27.843A23.063,23.063,0,0,1,216.1,144.477Z" transform="translate(-173.875 -85.239)" fill="#bcdddd"/>
      <path id="Path_686" data-name="Path 686" d="M214.509,136.745a14.739,14.739,0,1,1,10.861-17.792A14.737,14.737,0,0,1,214.509,136.745Z" transform="translate(-174.238 -85.602)" fill="#bcdddd"/>
    </g>
    <g id="Group_249" data-name="Group 249" transform="translate(368.872 142.477)">
      <path id="Path_687" data-name="Path 687" d="M424.879,167.11l-1.955-8.1-3.392.819a21.794,21.794,0,0,0-5.153-7.091l1.813-2.968-7.109-4.344L407.27,148.4a21.788,21.788,0,0,0-8.664-1.355l-.818-3.386-8.1,1.955.819,3.386a21.807,21.807,0,0,0-7.092,5.158l-2.965-1.812-4.345,7.108,2.968,1.813a21.785,21.785,0,0,0-1.352,8.663l-3.389.819,1.955,8.1,3.39-.819a21.8,21.8,0,0,0,5.155,7.09l-1.814,2.969,7.109,4.344,1.815-2.97a21.8,21.8,0,0,0,8.659,1.35l.82,3.394,8.1-1.955-.82-3.4a21.775,21.775,0,0,0,7.089-5.152l2.971,1.815L423.1,178.4l-2.97-1.814a21.763,21.763,0,0,0,1.352-8.66Zm-21.557,17.212a15.835,15.835,0,1,1,11.668-19.115A15.833,15.833,0,0,1,403.322,184.322Z" transform="translate(-374.333 -143.654)" fill="#bcdddd"/>
      <path id="Path_688" data-name="Path 688" d="M402.229,179.014a10.119,10.119,0,1,1,7.457-12.214A10.117,10.117,0,0,1,402.229,179.014Z" transform="translate(-374.582 -143.903)" fill="#bcdddd"/>
    </g>
    <g id="Group_261" data-name="Group 261" transform="translate(218.795 197.136)">
      <path id="Path_689" data-name="Path 689" d="M284.605,407.452c0,1.527-14.061,2.767-31.408,2.767s-31.406-1.24-31.406-2.767,14.062-2.769,31.406-2.769S284.605,405.923,284.605,407.452Z" transform="translate(-221.791 -202.532)" fill="#e0e0e0"/>
      <path id="Path_690" data-name="Path 690" d="M259.484,235.313a11.017,11.017,0,0,1,2.689,3.831,5,5,0,0,1-.371,4.523,2.087,2.087,0,0,1-2.119,1.014,2.355,2.355,0,0,1-.6-.292,8.1,8.1,0,0,1-3.678-5.756" transform="translate(-222.334 -199.795)" fill="#39383e"/>
      <g id="Group_256" data-name="Group 256" transform="translate(5.604)">
        <g id="Group_250" data-name="Group 250" transform="translate(0 192.195)">
          <path id="Path_691" data-name="Path 691" d="M234.736,395.568s-1.4,4.069-1.805,5.091-3.424.082-3.6-.578,1.185-5.518,1.185-5.518" transform="translate(-227.517 -394.563)" fill="#fcb6ac"/>
          <path id="Path_692" data-name="Path 692" d="M228.41,400.25c-.368,1.082-1.047,2.625-.9,3.169s3.976,2.171,4.834,2.694a10.768,10.768,0,0,0,2.77,1.052c2.547.456,4.5.013,4.695-.383.812-1.651-4.235-2.75-6.387-7.409a1.032,1.032,0,0,0-.778.351,1.773,1.773,0,0,1-2.155.435,2.844,2.844,0,0,1-1.06-1.214A1.959,1.959,0,0,0,228.41,400.25Z" transform="translate(-227.487 -394.634)" fill="#001118"/>
        </g>
        <g id="Group_251" data-name="Group 251" transform="translate(36.258 194.878)">
          <path id="Path_693" data-name="Path 693" d="M269.015,397.29s-.1,4.3-.173,5.4-3.237,1.119-3.6.543-.548-5.618-.548-5.618" transform="translate(-264.346 -397.29)" fill="#fcb6ac"/>
          <path id="Path_694" data-name="Path 694" d="M264.412,403.661c-.021,1.143-.2,2.82.1,3.294s4.447.86,5.424,1.1a10.793,10.793,0,0,0,2.959.161c2.565-.34,4.292-1.357,4.356-1.792.272-1.82-4.871-1.333-8.336-5.119a1.033,1.033,0,0,0-.636.572,1.774,1.774,0,0,1-1.92,1.069,2.837,2.837,0,0,1-1.378-.835A1.96,1.96,0,0,0,264.412,403.661Z" transform="translate(-264.34 -397.355)" fill="#001118"/>
        </g>
        <path id="Path_695" data-name="Path 695" d="M304.341,226.568c-.016-.468-.632-.288-.815.085a2.592,2.592,0,0,0-.109.325c.112-.762.194-1.384.189-1.539-.014-.444-.581-.322-.8.01.035-.307.058-.539.056-.639-.008-.571-.63-.381-.819.075a6.772,6.772,0,0,0-.2.773,3.59,3.59,0,0,0,.036-.429c-.015-.468-.559-.39-.742-.018a5.952,5.952,0,0,0-.229.889c-.106.461-.277.952-.375,1.417-.089.423-.754,2.39-1.768,2.521-1.553.2-.366-2.376-1.393-3.061-.323-.216-.852,1.815-.974,2.977a12.986,12.986,0,0,0-.123,2.441,16.2,16.2,0,0,1,.25,2.107,8.657,8.657,0,0,1-1.036,1.972l3.785,1.2a15.576,15.576,0,0,1,1.594-2.5,8.863,8.863,0,0,0,2.677-3.938,17.212,17.212,0,0,0,.7-3.086S304.346,226.722,304.341,226.568Z" transform="translate(-228.586 -199.619)" fill="#fcb6ac"/>
        <path id="Path_696" data-name="Path 696" d="M264.905,255.975s12.241.9,19.5-5.991c5.912-6.985,11.71-14.774,12.154-15.505,1.01.485,3.166,1.7,3.166,1.7s-8.295,15.082-11.317,18.434-8.87,8.766-20.446,10.737C263.045,258.662,264.905,255.975,264.905,255.975Z" transform="translate(-228.086 -199.781)" fill="#fcb6ac"/>
        <path id="Path_697" data-name="Path 697" d="M273.006,355.342c.708-9.247-2.49-38.238-2.8-40.732s-2.066-2.813-3.406-3.222c-6.688-2.012-14.619,8.362-12.506,17.677.03.15.071.311.112.472,1.257,5.4,8.352,22.732,7.854,27.743-3.884,10.49.524,32.225,1.854,41.367.162,0,.325,0,.475-.008a27.157,27.157,0,0,0,5.223-.576S272.3,364.588,273.006,355.342Z" transform="translate(-227.915 -201.02)" fill="#ffb41d"/>
        <path id="Path_698" data-name="Path 698" d="M264.554,357.424c.242-3.415-3.21-30.561-4.064-30.191a1.479,1.479,0,0,0-.615.675c-.714,1.228-1.4,2.473-2,3.761a34.373,34.373,0,0,0-1.584,4.1c2.5,7.385,6.377,18.026,6,21.774-2.3,6.219-1.691,16.389-.534,25.544C261.314,371.037,264.361,360.149,264.554,357.424Z" transform="translate(-227.953 -201.28)" fill="#e89c13"/>
        <path id="Path_699" data-name="Path 699" d="M268.74,304.586a31.7,31.7,0,0,1-7.6.5c-6.426-.168-14.578-3.422-14.578-3.422-8.2,8.873-3.691,19.263-3.976,22.679-.272,3.264-.25,18.48-.887,27.719a4.04,4.04,0,0,1-.694,2.056c-6.083,8.657-8.794,29.065-11.15,40.091l-.089.388a28.271,28.271,0,0,0,5.514,1.539l.322-.912c2.476-7.487,13.913-28.958,16.76-37.348,2.583-7.612,9.253-30.717,9.377-30.7l8.5,1.455A163.53,163.53,0,0,0,268.74,304.586Z" transform="translate(-227.524 -200.867)" fill="#ffb41d"/>
        <g id="Group_253" data-name="Group 253" transform="translate(17.848 35.389)">
          <g id="Group_252" data-name="Group 252">
            <path id="Path_700" data-name="Path 700" d="M246.19,245.078a11.911,11.911,0,0,0,1.932,3.556c1.594,2.231,3.6,4.442,3.775,4.781a4.5,4.5,0,0,1-.558,4.621l4.393,4,1.345,1.236.9-.9,2.749-2.739.133-3.184a4.646,4.646,0,0,1-1.239-1.876c-.039-.129-.08-.249-.119-.368-.11-.359-.2-.668-.21-.748.309-.15,1.086-.458,2.461-1.225,1.464-.807,1.853-2.6,1.474-4.3-.3-1.344-2.41-8.1-2.41-8.1-1.913-8.367-12.759-3.227-14.214-1.623S245.612,242.518,246.19,245.078Z" transform="translate(-245.628 -235.181)" fill="#fcb6ac"/>
          </g>
        </g>
        <path id="Path_701" data-name="Path 701" d="M263.649,256.161a24.27,24.27,0,0,0,11.86-1.616c3.164,3.72,4.447,9.7,4.447,9.7s-7.65,4.862-13.243,5.329A78.218,78.218,0,0,0,263.649,256.161Z" transform="translate(-228.071 -200.105)" fill="#094165"/>
        <path id="Path_702" data-name="Path 702" d="M264.744,257.376a26.88,26.88,0,0,1,4.579,11.775,34.124,34.124,0,0,0,10.651-4.86c-1.7.549-8.943,3.244-9.936,1.012A34.529,34.529,0,0,0,264.744,257.376Z" transform="translate(-228.089 -200.151)" fill="#094165"/>
        <g id="Group_254" data-name="Group 254" transform="translate(14.082 55.944)">
          <path id="Path_703" data-name="Path 703" d="M270.008,313.723s-9.788,2.609-24.231.8c-1.524-.178-2.369-.282-3.977-.585,2.161-7.22,1.472-20.807,1.68-26.7,0,0,.219-11.991.3-16.655a45.563,45.563,0,0,1,.564-7.43,3.52,3.52,0,0,1,.719-1.733,42.3,42.3,0,0,1,3.528-2.65,9.174,9.174,0,0,1,6.375,3.579,10.209,10.209,0,0,1,1.43,5.218,15.947,15.947,0,0,1-.239,3.183l9.506-2.546s.042-.752,0-1.941c-.083-2.5-.553-6.95-2.682-10.154a5.651,5.651,0,0,1,2.5.23,11.1,11.1,0,0,1,1.472,3.537,65.25,65.25,0,0,1,1.45,6.376c.167.908.313,1.837.459,2.776C271.7,288.135,270.008,313.723,270.008,313.723Z" transform="translate(-241.8 -256.074)" fill="#ffb41d"/>
          <path id="Path_704" data-name="Path 704" d="M256.271,270.747l9.5-2.544s.453-7.378-2.677-12.088a18.379,18.379,0,0,0-2.624.244,1.763,1.763,0,0,1-.874,2.671c-2.848.864-7.587-1.939-7.587-1.939a18.344,18.344,0,0,0-3.307,1.68C249.074,258.848,258.032,260.2,256.271,270.747Z" transform="translate(-241.912 -256.074)" fill="#094165"/>
        </g>
        <path id="Path_705" data-name="Path 705" d="M319.807,225.224l3.635-.878-2.1-8.678-3.634.878a23.329,23.329,0,0,0-5.522-7.6l1.943-3.182-7.617-4.654-1.943,3.18a23.346,23.346,0,0,0-9.283-1.451l-.877-3.629-8.678,2.1.877,3.629a23.336,23.336,0,0,0-7.6,5.526l-3.178-1.942-4.654,7.618,3.18,1.943a23.342,23.342,0,0,0-1.448,9.281l-3.632.877,2.1,8.678,3.632-.878a23.354,23.354,0,0,0,5.524,7.6l-1.944,3.182,7.618,4.655,1.945-3.184a23.34,23.34,0,0,0,9.279,1.446l.879,3.637,8.677-2.1-.878-3.637a23.35,23.35,0,0,0,7.6-5.52l3.184,1.945,4.655-7.618-3.183-1.944A23.346,23.346,0,0,0,319.807,225.224Z" transform="translate(-228.162 -199.211)" fill="#bcdddd"/>
        <path id="Path_706" data-name="Path 706" d="M242.778,268.557s0,12.391,5.832,12.783c4.171.279,4.773-9.327,4.773-9.327Z" transform="translate(-227.734 -200.332)" fill="#094165"/>
        <path id="Path_707" data-name="Path 707" d="M261.546,273.261c.166,1.388,0,1.649,0,1.649-11.521,3.308-16.436-1.314-16.436-1.314l9.736-5.646,1.607-.218,9.267-1.3,1.524-.209a11.021,11.021,0,0,1,1.221.2c.167.908.313,1.837.459,2.776A61.706,61.706,0,0,1,261.546,273.261Z" transform="translate(-227.772 -200.294)" fill="#f29b75" opacity="0.49"/>
        <g id="Group_255" data-name="Group 255" transform="translate(23.891 27.081)">
          <path id="Path_708" data-name="Path 708" d="M255.364,274.066a45.966,45.966,0,0,0,14-6.473,10.818,10.818,0,0,0,4.179-6.061c1.211-6.764-.946-18.989-1.985-23.467-3.034.2-3.648.835-3.648.835s-.923,13.185-.8,20.957c0,0-7.424,4.659-15.331,4.2" transform="translate(-251.771 -226.92)" fill="#fcb6ac"/>
          <path id="Path_709" data-name="Path 709" d="M268.138,239.1a8.92,8.92,0,0,0-.715-3.544c-.72-1.274-2.636-3.063-2.117-4.927a6.065,6.065,0,0,1,3.328-3.1c2.906-1.189,4.1-.853,4.3-.208s-1.506,1.965-1.4,3.207.738,1.67,1.258,2.782c.781,1.673-.988,3.676-.982,4.745C271.818,238.819,268.138,239.1,268.138,239.1Z" transform="translate(-251.988 -226.737)" fill="#fcb6ac"/>
        </g>
        <path id="Path_710" data-name="Path 710" d="M253.147,263.963s2.454-.293,5.434-.444a34.8,34.8,0,0,1,2.474,9.666s-5.625,4.044-14.181,1.295a6.035,6.035,0,0,1-4.089-5.673c-.172-5.978,2.829-7.737,2.829-7.737S250.569,259.5,253.147,263.963Z" transform="translate(-227.734 -200.206)" fill="#094165"/>
      </g>
      <path id="Path_711" data-name="Path 711" d="M256.81,237.177c2.418-.754,3.8-.651,2.38-4.167-.83-2.053-10.842,1.007-11.9,1.632-3.892,2.29-4.308,6.146-3.352,10.039,0,0,2.377,8.24,8.611,8.547a17.187,17.187,0,0,0-.639-3.794s-2.672-.794-3.125-2.3a1.378,1.378,0,0,1,1.141-1.681c.751-.018,1.33.925,1.33.925a15.958,15.958,0,0,0-.289-3.132,2.532,2.532,0,0,0-.889-1.38C250.177,241.653,251.413,238.858,256.81,237.177Z" transform="translate(-222.142 -199.746)" fill="#39383e"/>
      <path id="Path_712" data-name="Path 712" d="M255.675,253.895a5.418,5.418,0,0,0,3.984.618c-.11-.359-.2-.668-.21-.748A14.883,14.883,0,0,1,255.675,253.895Z" transform="translate(-222.339 -200.093)" fill="#f2a49c"/>
      <path id="Path_713" data-name="Path 713" d="M242.748,306.752s18.349,2.685,27.69,1.247v5.243a78.544,78.544,0,0,1-28.64-1.326S241.621,308.524,242.748,306.752Z" transform="translate(-222.114 -200.949)" fill="#ff9100"/>
      <g id="Group_257" data-name="Group 257" transform="translate(43.878 110.574)">
        <path id="Path_714" data-name="Path 714" d="M267.359,314.943h0a.261.261,0,0,1-.261-.262v-2.633a.261.261,0,0,1,.261-.261h0a.261.261,0,0,1,.261.261v2.633A.261.261,0,0,1,267.359,314.943Z" transform="translate(-266.402 -311.604)" fill="#e2e2e2"/>
        <path id="Path_715" data-name="Path 715" d="M268.41,314.843h0a.261.261,0,0,1-.262-.261V311.95a.261.261,0,0,1,.262-.261h0a.261.261,0,0,1,.261.261v2.633A.261.261,0,0,1,268.41,314.843Z" transform="translate(-266.418 -311.602)" fill="#e2e2e2"/>
        <path id="Path_716" data-name="Path 716" d="M269.514,314.843h0a.261.261,0,0,1-.262-.261V311.95a.261.261,0,0,1,.262-.261h0a.261.261,0,0,1,.261.261v2.633A.261.261,0,0,1,269.514,314.843Z" transform="translate(-266.436 -311.602)" fill="#e2e2e2"/>
        <path id="Path_717" data-name="Path 717" d="M270.508,314.756h0a.261.261,0,0,1-.261-.261v-2.634a.261.261,0,0,1,.261-.261h0a.261.261,0,0,1,.261.261V314.5A.261.261,0,0,1,270.508,314.756Z" transform="translate(-266.453 -311.601)" fill="#e2e2e2"/>
        <path id="Path_718" data-name="Path 718" d="M266.483,313.037s-.294,2.763.162,3.044a9.64,9.64,0,0,0,4.081-.239c.294-.294.109-2.936.109-2.936Z" transform="translate(-266.39 -311.622)" fill="#ff9100"/>
      </g>
      <g id="Group_258" data-name="Group 258" transform="translate(21.21 98.701)">
        <path id="Path_719" data-name="Path 719" d="M243.447,300.353l-.1,1.654a.872.872,0,0,0,.82.92l1.631.094-1.011,17.456a.386.386,0,0,0,.364.408l1.209.071a.387.387,0,0,0,.408-.364l1.011-17.457,1.746.1a.871.871,0,0,0,.92-.819l.1-1.654a.87.87,0,0,0-.819-.92l-5.36-.31A.869.869,0,0,0,243.447,300.353Z" transform="translate(-243.35 -299.533)" fill="#e2e2e2"/>
        <path id="Path_720" data-name="Path 720" d="M245.805,303.067l-1.628-.092a.858.858,0,0,1-.734-.481c.034,0,.081.012.115.012l2.271.138Z" transform="translate(-243.351 -299.581)" fill="#cecece"/>
        <path id="Path_721" data-name="Path 721" d="M250.572,300.765l-.1,1.663a.855.855,0,0,1-.917.814l-1.742-.1L246.8,320.6a.4.4,0,0,1-.413.367l-1.215-.069a.386.386,0,0,1-.355-.413v-.045l.963.057a.383.383,0,0,0,.4-.355L247.2,302.68l1.742.091a.856.856,0,0,0,.918-.814l.1-1.651a.784.784,0,0,0-.092-.436A.878.878,0,0,1,250.572,300.765Z" transform="translate(-243.373 -299.539)" fill="#cecece"/>
      </g>
      <g id="Group_259" data-name="Group 259" transform="translate(29.074 99.401)">
        <path id="Path_722" data-name="Path 722" d="M253.982,318.157l.514-14.623a1.853,1.853,0,0,0,.361-3.285l.042,1.812-1.021.575-1.122-.429-.212-1.734a1.836,1.836,0,0,0-.561,1.264,1.856,1.856,0,0,0,1.075,1.746l-.515,14.623a1.859,1.859,0,1,0,1.438.05Zm-.219,2.733-1.189-.042-.563-1.052.636-1.009,1.189.042.552,1.051Z" transform="translate(-251.342 -300.245)" fill="#cecece"/>
        <path id="Path_723" data-name="Path 723" d="M254.257,318.324c-.012-.012-.035-.034-.046-.034a1.5,1.5,0,0,0-.231-.127V318.1l.519-14.566a1.865,1.865,0,0,0,.359-3.294v.011l.034,1.8-1.017.579-1.122-.428-.012-.116-.2-1.618a2.236,2.236,0,0,0-.22.243,1.917,1.917,0,0,0-.346,1.017,1.849,1.849,0,0,0,.809,1.6,2.105,2.105,0,0,0,.267.15l-.509,14.624a1.861,1.861,0,0,0-1.2,1.665,1.84,1.84,0,0,0,.589,1.422,1.808,1.808,0,0,0,1.2.509,1.869,1.869,0,0,0,1.93-1.792A1.813,1.813,0,0,0,254.257,318.324Zm-.428.509.555,1.052-.625,1.006-1.19-.046-.115-.209-.44-.844.636-1.005,1.029.034Z" transform="translate(-251.342 -300.245)" fill="#cecece"/>
        <path id="Path_724" data-name="Path 724" d="M254.211,318.29a1.5,1.5,0,0,0-.231-.127V318.1a1.1,1.1,0,0,0-.277-.162l.52-14.623a1.862,1.862,0,0,0,1.2-1.665,1.8,1.8,0,0,0-.566-1.4l.034,1.8-1.017.579-1.122-.428-.012-.116-.266-.1-.151-1.272a1.917,1.917,0,0,0-.346,1.017,1.946,1.946,0,0,0,.531,1.365,1.805,1.805,0,0,0,.277.161v.07a2.121,2.121,0,0,0,.267.15l-.509,14.624a1.862,1.862,0,0,0-1.2,1.665,1.489,1.489,0,0,0,1.514,1.711,1.856,1.856,0,0,0,1.4-3.156C254.245,318.312,254.222,318.29,254.211,318.29Zm-.452,2.6-1.19-.046-.115-.209-.151-.012-.567-1.04.636-1.017,1.191.046.115.208.151.012.555,1.052Z" transform="translate(-251.342 -300.245)" fill="#e2e2e2"/>
      </g>
      <path id="Path_725" data-name="Path 725" d="M245.386,307.448l2.481.3-.232,4.87a17.3,17.3,0,0,1-2.529-.413Z" transform="translate(-222.168 -200.96)" fill="#ff9100"/>
      <path id="Path_726" data-name="Path 726" d="M252.361,308.259a19.113,19.113,0,0,0,2.48.169l-.231,5.006a15.828,15.828,0,0,1-2.593-.317Z" transform="translate(-222.279 -200.973)" fill="#ff9100"/>
      <path id="Path_727" data-name="Path 727" d="M265.961,313.785a1.61,1.61,0,0,1-.042.2,1.078,1.078,0,0,1-.209.5c-.177.178-4.5.355-4.852.022s-.084-6.4,0-6.627a18.062,18.062,0,0,1,5.03,0,.473.473,0,0,1,.083.282.8.8,0,0,1-.021.25l-4.07.052c-.052.512-.125,5.468-.125,5.468C262.6,313.983,265.961,313.785,265.961,313.785Z" transform="translate(-222.419 -200.964)" fill="#e2e2e2"/>
      <path id="Path_728" data-name="Path 728" d="M265.976,313.792a1.6,1.6,0,0,1-.042.2,40.623,40.623,0,0,1-4.268.115,49.467,49.467,0,0,1,0-5.844,33.368,33.368,0,0,1,4.32-.094.8.8,0,0,1-.021.25l-4.07.052c-.052.512-.125,5.468-.125,5.468C262.615,313.99,265.976,313.792,265.976,313.792Z" transform="translate(-222.434 -200.972)" fill="#cecece"/>
      <path id="Path_729" data-name="Path 729" d="M264.694,311.59a1.2,1.2,0,0,1-.073.21c-.177.386-3.663.281-4.2-.157v-.521s1.94-.177,4.142-.386A.846.846,0,0,1,264.694,311.59Z" transform="translate(-222.415 -201.013)" fill="#e2e2e2"/>
      <path id="Path_730" data-name="Path 730" d="M264.694,311.6a1.2,1.2,0,0,1-.073.21c-.177.386-3.663.281-4.2-.157v-.138a9.89,9.89,0,0,0,1.93.274A8.4,8.4,0,0,0,264.694,311.6Z" transform="translate(-222.415 -201.026)" fill="#cecece"/>
      <g id="Group_260" data-name="Group 260" transform="translate(19.228 29.34)">
        <path id="Path_731" data-name="Path 731" d="M246.371,230.676c-8.056,4.375-4.416,12.063-2.825,14.718h0s-.273,1.18.923.763c0,0,5.187-5.828,16.677-9.132C261.918,236.47,257.162,224.816,246.371,230.676Z" transform="translate(-241.335 -229.033)" fill="#ffb41d"/>
        <path id="Path_732" data-name="Path 732" d="M247.747,242.589s7.395-.373,12.084-2.967.749-3.9.749-3.9l-5.791.6Z" transform="translate(-241.438 -229.141)" fill="#ffb41d"/>
        <path id="Path_733" data-name="Path 733" d="M243.738,232.647s6.533-3.784,11.744,5.673a10.362,10.362,0,0,1,2.766-1.336,9.781,9.781,0,0,0-10.069-7.123A5.14,5.14,0,0,0,243.738,232.647Z" transform="translate(-241.374 -229.046)" fill="#ffbf4d"/>
      </g>
    </g>
    <g id="Group_262" data-name="Group 262" transform="translate(79.245 70.822)">
      <path id="Path_734" data-name="Path 734" d="M341.6,144.528h-1.929V142.6a.564.564,0,1,0-1.127,0v1.928h-1.928a.564.564,0,1,0,0,1.128h1.928v1.928a.564.564,0,1,0,1.127,0v-1.928H341.6a.564.564,0,0,0,0-1.128Z" transform="translate(-84.087 -71.973)" fill="#f9c9b7"/>
      <path id="Path_735" data-name="Path 735" d="M330.873,84.514h-1.929V82.586a.564.564,0,1,0-1.128,0v1.928h-1.929a.564.564,0,0,0,0,1.128h1.929v1.928a.564.564,0,0,0,1.128,0V85.643h1.929a.564.564,0,0,0,0-1.128Z" transform="translate(-83.914 -71.003)" fill="#f9c9b7"/>
      <path id="Path_736" data-name="Path 736" d="M158.878,220.753h-1.928v-1.928a.564.564,0,0,0-1.128,0v1.928h-1.928a.564.564,0,1,0,0,1.128h1.928v1.928a.564.564,0,1,0,1.128,0v-1.928h1.928a.564.564,0,0,0,0-1.128Z" transform="translate(-81.134 -73.205)" fill="#f9c9b7"/>
      <path id="Path_737" data-name="Path 737" d="M417.012,210.584h-1.929v-1.929a.564.564,0,0,0-1.128,0v1.929h-1.928a.564.564,0,1,0,0,1.127h1.928v1.929a.564.564,0,0,0,1.128,0v-1.929h1.929a.564.564,0,0,0,0-1.127Z" transform="translate(-85.306 -73.041)" fill="#f9c9b7"/>
      <path id="Path_738" data-name="Path 738" d="M124.746,105.218h-1.929V103.29a.564.564,0,1,0-1.127,0v1.928H119.76a.564.564,0,0,0,0,1.128h1.929v1.928a.564.564,0,0,0,1.127,0v-1.928h1.929a.564.564,0,0,0,0-1.128Z" transform="translate(-80.582 -71.338)" fill="#f9c9b7"/>
      <circle id="Ellipse_7" data-name="Ellipse 7" cx="1.995" cy="1.995" r="1.995" transform="translate(93.874 80.015)" fill="#f9c9b7"/>
      <path id="Path_739" data-name="Path 739" d="M315.828,284.56a1.995,1.995,0,1,1-1.994-2A1.994,1.994,0,0,1,315.828,284.56Z" transform="translate(-83.696 -74.244)" fill="#f9c9b7"/>
      <path id="Path_740" data-name="Path 740" d="M83.938,233.49a2,2,0,1,1-2-2A1.994,1.994,0,0,1,83.938,233.49Z" transform="translate(-79.948 -73.419)" fill="#f9c9b7"/>
      <circle id="Ellipse_8" data-name="Ellipse 8" cx="1.995" cy="1.995" r="1.995" transform="translate(138.631)" fill="#f9c9b7"/>
      <path id="Path_741" data-name="Path 741" d="M399.144,221.141a2,2,0,1,1-2-2A2,2,0,0,1,399.144,221.141Z" transform="translate(-85.042 -73.219)" fill="#f9c9b7"/>
    </g>
    <g id="Group_264" data-name="Group 264" transform="translate(290.006 116.253)">
      <path id="Path_742" data-name="Path 742" d="M326.5,173.925a108.4,108.4,0,0,1-12.33,10.477c-3.254,2.149-9.751,6.065-9.751,6.065l-.231-.358a4.022,4.022,0,0,0-1.632,1.907,11.156,11.156,0,0,1-1.874,2.748l-.685-3.033,1.59-2.305,3.886-2.906,17.4-14.6Q324.712,172.888,326.5,173.925Z" transform="translate(-294.266 -117.887)" fill="#f9d8cd"/>
      <path id="Path_743" data-name="Path 743" d="M305.373,188.654a14.4,14.4,0,0,0-2.924,2.232,5.144,5.144,0,0,0-.966,2.486,5.926,5.926,0,0,1-2,2.679c-.435.365-.639.009-.489-.752s.736-1.745.732-2.064-.393-.315-1.092.014a7.878,7.878,0,0,0-2.238,1.744c-.392.523-1.172,1.97-1.648,2.136s-.718.049-.488-.712a11.789,11.789,0,0,1,.836-2.279c.252-.5-.227-1.064.527-2.836a14.275,14.275,0,0,1,.876-1.545,1.9,1.9,0,0,1,.07-.313c.267-.682,2.616-1.071,3.25-1.438A30.513,30.513,0,0,0,302.792,185Z" transform="translate(-294.171 -118.099)" fill="#fcb6ac"/>
      <path id="Path_744" data-name="Path 744" d="M361.393,157.376l-14.671.724-18.577,2.172c-5.34-9.27,6.474-14.416,8.734-14.653l6.513-.979a29.215,29.215,0,0,1,9.9,3.025C356.076,149.086,359.208,152.714,361.393,157.376Z" transform="translate(-294.698 -117.446)" fill="#094165"/>
      <path id="Path_745" data-name="Path 745" d="M335.625,143.449s.579,2.721.716,3.488a2.178,2.178,0,0,0,2.143,1.793c5.726-.011,5.54-3.6,5.54-3.6-1.078-1.862-1.5-7.231-1.5-7.231" transform="translate(-294.841 -117.337)" fill="#fcb6ac"/>
      <path id="Path_746" data-name="Path 746" d="M356.059,168.379c-1.065,2.6-3.348,7.623-6.373,11.078-4.07,4.673-20.735,16.494-20.735,16.494l-.183-.183a13.2,13.2,0,0,0-1.594,1.54c-.4.624-.883,2.96-1.571,3.187a2.275,2.275,0,0,1-.323.064,2.2,2.2,0,0,1-1,.377,6.109,6.109,0,0,1-2.11-.334,4.012,4.012,0,0,1-1,.7,20.963,20.963,0,0,1-2.627,1.217c-.764.2-.883-.043-.689-.506.183-.485,1.669-1.2,2.207-1.572a8.1,8.1,0,0,0,1.831-2.164c.355-.689.376-1.065.064-1.087s-1.335.527-2.1.646-1.12-.1-.721-.517a5.883,5.883,0,0,1,2.746-1.895,5.16,5.16,0,0,0,2.529-.862,7.436,7.436,0,0,0,1.475-1.6l-.29-.291s8.839-11,15.46-19.518c.151-.183.29-.334.441-.517,3.855-6.826,5.34-6.61,5.34-6.61l6.848.462C354.476,167.1,355.273,167.723,356.059,168.379Z" transform="translate(-294.553 -117.792)" fill="#f9d8cd"/>
      <path id="Path_747" data-name="Path 747" d="M325.268,192.675a14.4,14.4,0,0,1-2.351,2.829,5.15,5.15,0,0,1-2.525.863,5.924,5.924,0,0,0-2.76,1.888c-.382.418-.034.637.731.518s1.775-.662,2.094-.645.3.405-.059,1.09a7.876,7.876,0,0,1-1.836,2.163c-.54.371-2.017,1.09-2.2,1.559s-.079.715.692.517a11.749,11.749,0,0,0,2.311-.741c.507-.231,1.054.271,2.856-.409a14.245,14.245,0,0,0,1.579-.811,2.041,2.041,0,0,0,.316-.057c.693-.238,1.179-2.57,1.572-3.188a30.483,30.483,0,0,1,3.13-2.847Z" transform="translate(-294.529 -118.223)" fill="#fcb6ac"/>
      <path id="Path_748" data-name="Path 748" d="M357.131,160.868c2.1-3.23-4.57-7.042-4.57-7.042l-2.592,1.075c-1.548-.779-4.206-1.951-4.206-1.951l-1.4,3.806a3.209,3.209,0,0,0,.161,1.792c-.093,2.18-4.044,14.175-4.213,14.352a164.624,164.624,0,0,0-15.452,19.508,5.861,5.861,0,0,0,1.444,1.944,9.022,9.022,0,0,0,1.9,1.335s12.227-9.934,17.775-15.773C351.146,174.48,355.026,164.1,357.131,160.868Z" transform="translate(-294.667 -117.581)" fill="#094165"/>
      <path id="Path_749" data-name="Path 749" d="M328.461,140.576a8.012,8.012,0,0,0,3.641,3.773,6.864,6.864,0,0,0,5.488-.15,8.527,8.527,0,0,0-.195-15.682c-2.837-1.17-7.3-.643-9.448,1.775C325.757,132.753,327.141,138.023,328.461,140.576Z" transform="translate(-294.699 -117.176)" fill="#fcb6ac"/>
      <path id="Path_750" data-name="Path 750" d="M342.763,136.294a8.718,8.718,0,0,1-5.075,7.9,7.069,7.069,0,0,1-4.958.355,11.543,11.543,0,0,0,3.174-.593,8.861,8.861,0,0,0,5.226-7.906c-.035-3.317-2.937-6.545-6.01-7.815a6.413,6.413,0,0,0-.992-.319,8.4,8.4,0,0,1,8.634,8.373Z" transform="translate(-294.795 -117.176)" fill="#f2a49c"/>
      <path id="Path_751" data-name="Path 751" d="M327.208,133.611a6.785,6.785,0,0,0,5.144-3.669,3.429,3.429,0,0,0,5.22,1.681,4.143,4.143,0,0,0,3.665,4.3,1.751,1.751,0,0,0,1.074,2.6,2.333,2.333,0,0,0,2.565-1.644,3.537,3.537,0,0,0-.712-3.138,5.74,5.74,0,0,0-4.845-10.261,5.584,5.584,0,0,0-10.5-.194c.07-.183-1.6-.108-1.732-.1a5.046,5.046,0,0,0-1.977.5C323.954,124.279,325.071,133.829,327.208,133.611Z" transform="translate(-294.664 -117.043)" fill="#39383e"/>
      <path id="Path_752" data-name="Path 752" d="M342.741,136.67c.183-1.1-.452-2.656-1.42-2.879a1.558,1.558,0,0,0-2.059,1.275c-.182,1.1.427,2.974,1.4,3.2A1.783,1.783,0,0,0,342.741,136.67Z" transform="translate(-294.9 -117.27)" fill="#fcb6ac"/>
      <path id="Path_753" data-name="Path 753" d="M327.7,151.943,317.254,169.5l5.389,5.572s3.044-2.768,5.062-5.08c.862-.986,1.708-2,2.442-2.9a8.117,8.117,0,0,0,1.693-6.678,19.831,19.831,0,0,0-1.04-4.062C328.783,152.364,327.7,151.943,327.7,151.943Z" transform="translate(-294.545 -117.564)" fill="#094165"/>
      <path id="Path_754" data-name="Path 754" d="M317,169.77s-10.811,10.686-15.386,16.1l2.647,3.5s14.9-8.675,20.606-17.147C328.965,166.145,317,169.77,317,169.77Z" transform="translate(-294.292 -117.835)" fill="#094165"/>
      <path id="Path_755" data-name="Path 755" d="M353.547,157.914s3.365,7.4,6.909,6.46c2.907-.773,1.37-6.848,1.37-6.848l-3.943-3.56Z" transform="translate(-295.131 -117.597)" fill="#094165"/>
      <path id="Path_756" data-name="Path 756" d="M328.982,152.014a31.7,31.7,0,0,0,2.579,15.709l1.108-7.932a30.163,30.163,0,0,1,0-12.408,5.436,5.436,0,0,0-1.334.573A4.62,4.62,0,0,0,328.982,152.014Z" transform="translate(-294.732 -117.491)" fill="#ffb41d"/>
      <path id="Path_757" data-name="Path 757" d="M341.614,159.141s.541-12.639,7.657-13.229a4.036,4.036,0,0,1,2.653,1.009s-6.155,1.814-7.173,11.923Z" transform="translate(-294.938 -117.467)" fill="#ffb41d"/>
      <g id="Group_263" data-name="Group 263" transform="translate(29.456)">
        <path id="Path_758" data-name="Path 758" d="M338.811,130.172s-2.378,4.52-12.614,5.547c-.772.078-3.476-.519-1.16-2.883Z" transform="translate(-324.111 -117.213)" fill="#ffb41d"/>
        <path id="Path_759" data-name="Path 759" d="M324.739,131.769h0c-.752-2.469-2.177-9.633,5.265-12.822,11.037-4.73,14.973,2.065,16.407,7.9l0,0a.85.85,0,0,1,.75.621.708.708,0,0,1-.463.689,20.766,20.766,0,0,1-2.916.908c-4.372,1.3-12.7,3.546-18.253,3.568a.537.537,0,0,1-.494,0C324.218,132.313,324.739,131.769,324.739,131.769Z" transform="translate(-324.111 -117.005)" fill="#ffb41d"/>
        <path id="Path_760" data-name="Path 760" d="M336.414,117.358s-9.045,2.278-5.946,14.83a21.077,21.077,0,0,1-3.829.454s-2.873-9.467,3.4-13.7C330.034,118.941,332.834,116,336.414,117.358Z" transform="translate(-324.141 -117)" fill="#ffbf4d"/>
      </g>
    </g>
    <g id="Group_277" data-name="Group 277" transform="translate(336.569 228.888)">
      <g id="Group_275" data-name="Group 275" transform="translate(0 1.92)">
        <g id="Group_265" data-name="Group 265" transform="translate(46.668)">
          <path id="Path_761" data-name="Path 761" d="M405.713,399.231a1.153,1.153,0,0,1-1.147-1.045L388.94,234.7a1.155,1.155,0,0,1,2.3-.22l15.625,163.486a1.154,1.154,0,0,1-1.04,1.258A1.051,1.051,0,0,1,405.713,399.231Z" transform="translate(-388.935 -233.437)" fill="#f2b9a7"/>
        </g>
        <g id="Group_266" data-name="Group 266" transform="translate(0 0)">
          <path id="Path_762" data-name="Path 762" d="M342.655,399.231a1.015,1.015,0,0,1-.11,0,1.154,1.154,0,0,1-1.04-1.258L357.13,234.482a1.154,1.154,0,0,1,2.3.22L343.8,398.186A1.154,1.154,0,0,1,342.655,399.231Z" transform="translate(-341.5 -233.437)" fill="#f2b9a7"/>
        </g>
        <g id="Group_267" data-name="Group 267" transform="translate(15.534 13.035)">
          <rect id="Rectangle_60" data-name="Rectangle 60" width="33.535" height="2.309" fill="#f2b9a7"/>
        </g>
        <g id="Group_268" data-name="Group 268" transform="translate(13.659 32.657)">
          <rect id="Rectangle_61" data-name="Rectangle 61" width="37.285" height="2.309" fill="#f2b9a7"/>
        </g>
        <g id="Group_269" data-name="Group 269" transform="translate(11.784 52.279)">
          <rect id="Rectangle_62" data-name="Rectangle 62" width="41.036" height="2.309" fill="#f2b9a7"/>
        </g>
        <g id="Group_270" data-name="Group 270" transform="translate(9.908 71.9)">
          <rect id="Rectangle_63" data-name="Rectangle 63" width="44.787" height="2.309" fill="#f2b9a7"/>
        </g>
        <g id="Group_271" data-name="Group 271" transform="translate(8.101 91.522)">
          <rect id="Rectangle_64" data-name="Rectangle 64" width="48.47" height="2.309" fill="#f2b9a7"/>
        </g>
        <g id="Group_272" data-name="Group 272" transform="translate(6.214 111.143)">
          <rect id="Rectangle_65" data-name="Rectangle 65" width="52.233" height="2.309" fill="#f2b9a7"/>
        </g>
        <g id="Group_273" data-name="Group 273" transform="translate(4.297 130.765)">
          <rect id="Rectangle_66" data-name="Rectangle 66" width="56.025" height="2.309" fill="#f2b9a7"/>
        </g>
        <g id="Group_274" data-name="Group 274" transform="translate(3.033 150.386)">
          <rect id="Rectangle_67" data-name="Rectangle 67" width="59.163" height="2.309" fill="#f2b9a7"/>
        </g>
      </g>
      <g id="Group_276" data-name="Group 276" transform="translate(12.721 0)">
        <path id="Path_763" data-name="Path 763" d="M356.459,235.543h35.1a2.029,2.029,0,0,0,2.029-2.03h0a2.028,2.028,0,0,0-2.029-2.029h-35.1a2.028,2.028,0,0,0-2.029,2.029h0A2.029,2.029,0,0,0,356.459,235.543Z" transform="translate(-354.43 -231.485)" fill="#f2b9a7"/>
      </g>
    </g>
    <g id="Group_279" data-name="Group 279" transform="translate(139.765 136.753)">
      <path id="Path_764" data-name="Path 764" d="M395.738,296.353a113.9,113.9,0,0,0,.515-56.588l-20.743,2.306a107.246,107.246,0,0,0-12.088-29.735L379.9,199.162a114.487,114.487,0,0,0-26.693-31.242c-.779-.653-1.579-1.274-2.38-1.9a111.818,111.818,0,0,0-10.582-7.233l-13.152,16.468c-1.042-.642-2.1-1.274-3.159-1.885q-1.784-1.042-3.632-2a107.125,107.125,0,0,0-22.661-8.792l2.338-20.923a114.07,114.07,0,0,0-56.587-.506l2.328,20.828a106.992,106.992,0,0,0-29.79,11.942l-13.12-16.416a113.636,113.636,0,0,0-40.371,39.634L178.77,210.2a107.248,107.248,0,0,0-12.689,29.536L145.3,237.406a113.908,113.908,0,0,0-.517,56.587l20.68-2.306a107.079,107.079,0,0,0,12.015,29.831l-16.342,13.057a114.057,114.057,0,0,0,39.656,40.382l12.994-16.247a107.568,107.568,0,0,0,29.567,12.741l-2.3,20.639a113.854,113.854,0,0,0,56.577.516l-2.285-20.533a107.373,107.373,0,0,0,29.916-12.036l12.962,16.217A113.784,113.784,0,0,0,378.6,336.608L362.39,323.656a107.513,107.513,0,0,0,12.636-29.62ZM336.8,269.2a66.321,66.321,0,1,1-68.454-68.454A66.552,66.552,0,0,1,336.8,269.2Z" transform="translate(-141.463 -137.836)" fill="#bcdddd"/>
      <g id="Group_278" data-name="Group 278" transform="translate(46.685 46.673)">
        <path id="Path_765" data-name="Path 765" d="M271.244,350.012a82.369,82.369,0,0,1-82.286-85.056,82.47,82.47,0,0,1,79.635-79.635,82.372,82.372,0,0,1,85.012,85.025l-.728-.023.728.023a82.459,82.459,0,0,1-79.621,79.622Q272.612,350.011,271.244,350.012Zm.083-163.277q-1.341,0-2.689.042A81.01,81.01,0,0,0,190.415,265a80.914,80.914,0,0,0,83.523,83.51,80.908,80.908,0,0,0,54.552-138.08A80.123,80.123,0,0,0,271.327,186.735Z" transform="translate(-188.915 -185.276)" fill="#b5e3e5"/>
      </g>
    </g>
    <g id="Group_289" data-name="Group 289" transform="translate(143.868 224.453)">
      <path id="Path_766" data-name="Path 766" d="M224.673,407.452c0,1.527-14.061,2.767-31.407,2.767s-31.406-1.24-31.406-2.767,14.061-2.769,31.406-2.769S224.673,405.923,224.673,407.452Z" transform="translate(-145.895 -229.849)" fill="#e0e0e0"/>
      <g id="Group_288" data-name="Group 288">
        <path id="Path_767" data-name="Path 767" d="M159.49,289.154c-2.7-.319-4.27-1.51-5.844-2.077s-1.647.684-2.717.563-6.488.676-5.057,1.324,4.692-.055,4.838.56.219.61-.206,2.1,1.789,1.729,3.185,2.138,2.959-1.179,3.772-1.08,3.2.069,3.2.069,16.778,1.925,19.333,1.344,4.057-15.865,4.057-15.865l-7.247-.59s-1.507,9.92-1.845,10.3C171.532,287.881,159.49,289.154,159.49,289.154Z" transform="translate(-145.633 -227.796)" fill="#ffccb0"/>
        <path id="Path_768" data-name="Path 768" d="M182.612,259.126s-2.926,1.481-4.353,9.743l-1.586,10.21s.824,1.321,7.233,1.39" transform="translate(-146.135 -227.496)" fill="#094165"/>
        <g id="Group_285" data-name="Group 285" transform="translate(27.884 28.807)">
          <g id="Group_284" data-name="Group 284" transform="translate(6.772)">
            <g id="Group_280" data-name="Group 280" transform="translate(36.207 140.318)" opacity="0.8">
              <path id="Path_769" data-name="Path 769" d="M217.671,398.88l-.012.012h.012Z" transform="translate(-217.659 -398.88)" fill="#65b0c4"/>
            </g>
            <g id="Group_283" data-name="Group 283">
              <path id="Path_770" data-name="Path 770" d="M212.042,265.292a36.534,36.534,0,0,1-.671,5.687,102.27,102.27,0,0,1-5.167,17.135,13.863,13.863,0,0,0-.623,8c1.181,5.309-.161,5.658-.161,5.658s-7.188,4.562-13.167,6.423c-3.806,1.189-7.122,1.143-7.726-2.22a4.626,4.626,0,0,1-.076-.548c-.708-.142-.661-.87-.605-1.162.02-.094.047-.331.076-.6.057-.416.1-.916.1-1.077.208-10.625-1.587-10.077-2.135-21.979-.567-12.213,1.22-18.161,1.505-21.714a46.62,46.62,0,0,1,8.863-2.359,20.982,20.982,0,0,1,7.319.082c1.311.254,2.819.6,4.208.925C210.039,259.02,212.089,260.672,212.042,265.292Z" transform="translate(-180.872 -256.257)" fill="#094165"/>
              <path id="Path_771" data-name="Path 771" d="M206.649,311.5c.512.084,1.819-2.213,1.819-2.213l-.549-.728a2.447,2.447,0,0,0-1.235-.865l-.09-.028a1.054,1.054,0,0,0-1.184.406c-.376.556-.955,1.191-1.628,1.167h-.012a.157.157,0,0,1-.072.012C203.106,309.266,206.138,311.419,206.649,311.5Z" transform="translate(-181.225 -257.087)" fill="#f4d5b5"/>
              <path id="Path_776" data-name="Path 776" d="M205.233,307.754a9.234,9.234,0,0,1-1.059,1.159c-.242.134-.284-.15-.192-.35S205.2,307.483,205.233,307.754Z" transform="translate(-181.23 -257.089)" fill="#e5bb98"/>
              <path id="Path_777" data-name="Path 777" d="M213.752,395.526s-.33,5.909-.333,6.689c0,.44-2.9.923-4.238,0-.13-2.174-.814-6.68-.858-7.971" transform="translate(-181.301 -258.487)" fill="#ffbe9d"/>
              <path id="Path_778" data-name="Path 778" d="M207.3,328.824s8.186-13.969-2.891-26.3c0,0-7.621,3.411-13.724,3.823a30.178,30.178,0,0,1-7.246-.173,122.526,122.526,0,0,0-1.642,23.958Z" transform="translate(-180.872 -257.005)" fill="#ffb41d"/>
              <path id="Path_779" data-name="Path 779" d="M188.806,393.5l-.722,8.732-2.226.965-2-1-.329-7.755" transform="translate(-180.901 -258.476)" fill="#ffbe9d"/>
              <path id="Path_780" data-name="Path 780" d="M213.581,394.047c-.317-10.1.5-30.749-4.31-39.828l-.009-.016c-.019-.182-.033-.357-.058-.546-.64-4.854.265-28.165.561-32.7.1-1.588-1.289-2.988-2.953-4.152,2.084-1.057,3.384-1.783,3.384-1.783-.856-7.032-2.321-9.986-3.021-15.777s2.791-17.47,3.225-23.925c-.772,1.464-4.041,3.418-5.54-1.819s.9-15.491.9-15.491a13.61,13.61,0,0,0-2.77-.708c-1.739,4.02-3.179,11.49-3.179,11.49-10.134-1.263-15.238-.269-15.315-.255a66.608,66.608,0,0,1,.218-10.139,6.6,6.6,0,0,0-2.181.653,103.926,103.926,0,0,0-.865,10.375c-.516,4.971.1,19.408.1,26.35,0,4.444-.428,17.848-.66,24.772-.037.227-.069.453-.084.669-.029.384-.048,1.694-.061,3.575h0c-.055,8.237.012,27.443-.026,28.054a18.048,18.048,0,0,0-.035,2.369,11.79,11.79,0,0,0-.035,1.313c.329,7.542,2.115,24.8,2.1,40.208,2.109,1.261,4.777.972,5.807.2,1.595-13.3,6.27-29.9,1.661-41.311,1.48-5.565,3.682-14.223,5.07-20.871,1.018,6.524,2.85,15.918,4.468,21.936,0,.02.007.038.012.059,1.748,7.4,6.9,31.134,7.824,39.73.3,1.429,5.043.926,5.865.223C213.695,396.612,213.581,394.164,213.581,394.047Zm-18.663-71.355c-.04-.185-.092-.36-.14-.54l.238-.089Q194.963,322.373,194.918,322.692Z" transform="translate(-180.857 -256.274)" fill="#ffb41d"/>
              <path id="Path_781" data-name="Path 781" d="M190.212,385.784c-1.066,11.236-1.32,12.157-1.32,12.157,1.509-12.586,5.752-27.51,2.324-39.378a7.875,7.875,0,0,1-.117-4.077c1.809-7.382,4.29-16.843,5.33-22.915l-1.525-1.231s-2.474-10.768-3.061-11.131.105,3.659.468,8.644,1.174,8.035-.07,14-3.529,11.13-4,14.484C190.021,361.547,191.291,374.536,190.212,385.784Z" transform="translate(-180.977 -257.274)" fill="#e89c13"/>
            </g>
          </g>
          <path id="Path_782" data-name="Path 782" d="M188.654,407.524a.351.351,0,0,1-.341.235H175.284c-.78.042-1.253-.253-1.3-.609-.076-.569.459-.786.745-.891,0,0,6.912-2.929,7.262-3.091l1.715-.821a9.414,9.414,0,0,0,2.2.3,13.322,13.322,0,0,0,2.024-.269A5.342,5.342,0,0,1,188.654,407.524Z" transform="translate(-173.975 -258.618)" fill="#001118"/>
          <path id="Path_783" data-name="Path 783" d="M213.985,407.524a.351.351,0,0,1-.341.235H200.615c-.78.042-1.253-.253-1.3-.609-.076-.569.46-.786.744-.891,0,0,6.912-2.929,7.262-3.091l1.716-.821a9.4,9.4,0,0,0,2.2.3,13.344,13.344,0,0,0,2.024-.269A5.343,5.343,0,0,1,213.985,407.524Z" transform="translate(-174.384 -258.618)" fill="#001118"/>
        </g>
        <path id="Path_784" data-name="Path 784" d="M195.228,321.274a2.041,2.041,0,0,0-2.04,2.04v3.267h1.238v-3.109a.962.962,0,0,1,.961-.961h14.269a.961.961,0,0,1,.96.961v3.109h1.239v-3.267a2.041,2.041,0,0,0-2.041-2.04Z" transform="translate(-146.402 -228.501)" fill="#7e3838"/>
        <path id="Path_785" data-name="Path 785" d="M204.123,313.9a7.421,7.421,0,0,1-1.973,3.008c-.448.3-2.669,1.615-2.9,2.134a15.019,15.019,0,0,0-1.176,2.52c-.029.486.392,1.872.775,1.994s-.2,1.091.212,1.47a1.163,1.163,0,0,0,1.448.153c.4-.308.919.215,1.264.064a5.215,5.215,0,0,1,.873-.444c.3-.059.442.343,1.071.039.577-.279.516-.456.8-.616s.426.075.852-.37a7.644,7.644,0,0,0,1.116-1.971,6.021,6.021,0,0,0,.4-3,9.411,9.411,0,0,1,1.357-4.137Z" transform="translate(-146.48 -228.382)" fill="#ffccb0"/>
        <path id="Path_786" data-name="Path 786" d="M199.22,323.528a5.336,5.336,0,0,0,.3-2.007c.048-.49.247-.588.279-1.113.383.58-.014.736.024,1.844a1.9,1.9,0,0,1-.332,1.429.158.158,0,0,1-.27-.153Z" transform="translate(-146.499 -228.487)" fill="#f2a181"/>
        <path id="Path_787" data-name="Path 787" d="M195.225,321.272h4.243a1.47,1.47,0,0,0-.05.264c-.031.335-.021.64-.041.975h-3.989a.97.97,0,0,0-.964.964v3.106h-1.239v-3.268A2.04,2.04,0,0,1,195.225,321.272Z" transform="translate(-146.401 -228.501)" fill="#7e3838"/>
        <path id="Path_788" data-name="Path 788" d="M210.685,295.945a29.877,29.877,0,0,0-2.3,5.468c-.535,2.2-5.054,14.622-5.054,14.622l2.792,2.187s9.37-14.278,10.133-19.105c.218-1.387-2.271-5.139-2.271-5.139Z" transform="translate(-146.565 -228.06)" fill="#ffccb0"/>
        <path id="Path_789" data-name="Path 789" d="M208.037,283.006s1.514,10.087,2.724,12.755,5.568,3.172,5.568,3.172a74.035,74.035,0,0,0,.21-16.281" transform="translate(-146.642 -227.877)" fill="#ffccb0"/>
        <path id="Path_790" data-name="Path 790" d="M216.8,283.824a41.091,41.091,0,0,1-8.706.217c-2.081-7.076-3.494-15.857-3.047-18.425.792-4.558.7-7.725,3.807-6.507C208.857,259.109,217.8,262.049,216.8,283.824Z" transform="translate(-146.592 -227.492)" fill="#094165"/>
        <path id="Rectangle_68" data-name="Rectangle 68" d="M1.238,0H28.089a1.238,1.238,0,0,1,1.238,1.238V3.552a0,0,0,0,1,0,0H0a0,0,0,0,1,0,0V1.238A1.238,1.238,0,0,1,1.238,0Z" transform="translate(41.456 98.081)" fill="#605c5a"/>
        <path id="Rectangle_69" data-name="Rectangle 69" d="M0,0H28.774a0,0,0,0,1,0,0V10.208a.477.477,0,0,1-.477.477H.477A.477.477,0,0,1,0,10.208V0A0,0,0,0,1,0,0Z" transform="translate(41.733 101.633)" fill="#605c5a"/>
        <rect id="Rectangle_70" data-name="Rectangle 70" width="28.774" height="0.454" transform="translate(41.733 101.633)" fill="#474341"/>
        <rect id="Rectangle_71" data-name="Rectangle 71" width="2.961" height="2.707" rx="0.327" transform="translate(45.065 100.279)" fill="#ffb41d"/>
        <rect id="Rectangle_72" data-name="Rectangle 72" width="2.961" height="2.707" rx="0.327" transform="translate(64.198 100.279)" fill="#ffb41d"/>
        <g id="Group_286" data-name="Group 286" transform="translate(39.351 4.178)">
          <path id="Path_791" data-name="Path 791" d="M187.7,241.962a.854.854,0,0,0-1.643-.262,5.1,5.1,0,0,0-.372,3.022c.122,1.141,1.035,1.239,1.783,1.294" transform="translate(-185.63 -231.384)" fill="#ffccb0"/>
          <path id="Path_792" data-name="Path 792" d="M190.247,252.225a31.293,31.293,0,0,1,.506,3.976c-.3.514-1.493.953-1.493.953a3.354,3.354,0,0,0,3.35,3.22c5.767.283,7.031-3.794,7.031-3.794s-1.287-.445-1.343-.836-.153-7.763-.153-7.763" transform="translate(-185.689 -231.495)" fill="#ffccb0"/>
          <path id="Path_793" data-name="Path 793" d="M192.522,233.68c-.977.422-3.736.252-4.317,1.467a25.537,25.537,0,0,0-1.015,4.766c-.34,1.552-.475,3.176-.659,4.75-.239,2.052-.582,5.8,1.589,7.175a2.6,2.6,0,0,0,1.6.543c.94.035,1.878.092,2.818.126a9.308,9.308,0,0,0,4.414-.536c1.8-.882,2.458-3.618,2.69-5.446l1.33-10.47Z" transform="translate(-185.642 -231.263)" fill="#ffccb0"/>
          <path id="Path_794" data-name="Path 794" d="M200.436,244.588c-.693-.282-1.239-.607-1.567.065-.174.356-.244.824-.6.99a.764.764,0,0,1-.943-.483,2.223,2.223,0,0,1-.024-1.17q.208-1.294.415-2.589a3.766,3.766,0,0,0-.176-2.508,2.747,2.747,0,0,0-.926-.89,8.376,8.376,0,0,0-4.038-1.082,41.232,41.232,0,0,1-4.216-.255,4.486,4.486,0,0,1-1.671-.562c-.81-.51,10.023-5.485,12.346-4.819,1.61.461,2.925.726,3.23,3.185a.906.906,0,0,0,.352.347c1.517,1.04,3.006,1.771,3.119,4.022a20.684,20.684,0,0,1-2.119,8.967,5.116,5.116,0,0,1-.957,1.545,3.088,3.088,0,0,1-2.1.8c-.693-.032-2.012.215-2.123-.468-.079-.49.845-1.515,1.079-1.953" transform="translate(-185.646 -231.224)" fill="#39383e"/>
          <path id="Path_795" data-name="Path 795" d="M198.551,247.717a.865.865,0,0,0,1.42.788,2.981,2.981,0,0,0,1.537-2.554c.052-1.209-.749-2.3-1.783-1.835a1.606,1.606,0,0,0-.8,1.7" transform="translate(-185.839 -231.43)" fill="#ffccb0"/>
          <path id="Path_796" data-name="Path 796" d="M190.328,252.717l3.075.122a3.676,3.676,0,0,1-2.769,1.8" transform="translate(-185.706 -231.571)" fill="#f2a181"/>
        </g>
        <g id="Group_287" data-name="Group 287" transform="translate(38.7)">
          <path id="Path_797" data-name="Path 797" d="M198.621,239.679s-3.477,2.946-12.29.376c-.665-.194-2.7-1.591,0-2.772Z" transform="translate(-184.968 -227.143)" fill="#ffb41d"/>
          <path id="Path_798" data-name="Path 798" d="M186.392,236.312h0c.2-2.294,1.417-8.7,8.639-8.852,10.713-.227,11.7,6.711,10.94,12.014h0a.758.758,0,0,1,.413.764.628.628,0,0,1-.613.414,18.464,18.464,0,0,1-2.716-.221c-4.053-.382-11.691-1.308-16.3-3.145a.479.479,0,0,1-.409-.162C185.78,236.588,186.392,236.312,186.392,236.312Z" transform="translate(-184.987 -226.984)" fill="#ffb41d"/>
          <path id="Path_799" data-name="Path 799" d="M200.865,228.275s-8.246-1.137-9.874,10.285a18.839,18.839,0,0,1-3.32-.9s.786-8.794,7.387-10.2C195.058,227.453,198.357,225.954,200.865,228.275Z" transform="translate(-185.012 -226.977)" fill="#ffbf4d"/>
        </g>
      </g>
    </g>
    <g id="Group_300" data-name="Group 300" transform="translate(371.056 226.875)">
      <path id="Path_800" data-name="Path 800" d="M462.536,407.452c0,1.527-14.061,2.767-31.407,2.767s-31.406-1.24-31.406-2.767,14.061-2.769,31.406-2.769S462.536,405.923,462.536,407.452Z" transform="translate(-376.928 -232.271)" fill="#e0e0e0"/>
      <g id="Group_299" data-name="Group 299" transform="translate(0 0)">
        <g id="Group_290" data-name="Group 290" transform="translate(0 14.141)">
          <path id="Path_801" data-name="Path 801" d="M376.553,247.469l17.761,54.609a112.666,112.666,0,0,0,25-.922c9.567-1.5,18.788-6.879,18.788-6.879l-14.613-50.465a170.213,170.213,0,0,1-19.673,4.037A111.973,111.973,0,0,1,376.553,247.469Z" transform="translate(-376.553 -243.812)" fill="#e59a67"/>
          <path id="Path_802" data-name="Path 802" d="M416.441,285.715a10.05,10.05,0,0,0,.045-4.988l-1.829.2a9.463,9.463,0,0,0-1.065-2.622l1.451-1.161a10.047,10.047,0,0,0-3.495-3.559l-1.16,1.45a9.451,9.451,0,0,0-2.6-1.116l.206-1.846a10.055,10.055,0,0,0-4.989-.045l.206,1.837a9.451,9.451,0,0,0-2.626,1.053l-1.158-1.448a10.04,10.04,0,0,0-3.559,3.5l1.439,1.151a9.454,9.454,0,0,0-1.118,2.6l-1.833-.2a10.051,10.051,0,0,0-.045,4.988l1.823-.2a9.454,9.454,0,0,0,1.06,2.63l-1.441,1.151a10.055,10.055,0,0,0,3.5,3.56l1.145-1.433a9.462,9.462,0,0,0,2.607,1.125l-.2,1.82a10.05,10.05,0,0,0,4.988.045l-.2-1.811a9.432,9.432,0,0,0,2.637-1.061l1.143,1.429a10.04,10.04,0,0,0,3.56-3.495l-1.429-1.142a9.445,9.445,0,0,0,1.113-2.611Zm-5.2-2.393a5.847,5.847,0,1,1-6.035-6.036A5.868,5.868,0,0,1,411.245,283.323Z" transform="translate(-376.835 -244.263)" fill="none" stroke="#c0621c" stroke-miterlimit="10" stroke-width="0.539" opacity="0.2"/>
          <path id="Path_803" data-name="Path 803" d="M425.409,266.957a7,7,0,0,0,.032-3.475l-1.274.142a6.593,6.593,0,0,0-.741-1.826l1.01-.808A6.984,6.984,0,0,0,422,258.511l-.808,1.01a6.575,6.575,0,0,0-1.808-.777l.144-1.286a7,7,0,0,0-3.475-.032l.143,1.279a6.57,6.57,0,0,0-1.829.734l-.806-1.008a6.981,6.981,0,0,0-2.479,2.434l1,.8a6.6,6.6,0,0,0-.778,1.813l-1.277-.143a7,7,0,0,0-.031,3.475l1.27-.142a6.563,6.563,0,0,0,.738,1.832l-1,.8a6.983,6.983,0,0,0,2.434,2.479l.8-1a6.565,6.565,0,0,0,1.816.783l-.142,1.268a7,7,0,0,0,3.475.031l-.141-1.261a6.586,6.586,0,0,0,1.837-.739l.8,1a6.983,6.983,0,0,0,2.479-2.434l-.995-.8a6.6,6.6,0,0,0,.775-1.819Zm-3.62-1.667a4.072,4.072,0,1,1-4.2-4.2A4.087,4.087,0,0,1,421.79,265.29Z" transform="translate(-377.09 -244.029)" fill="#c0621c" opacity="0.2"/>
          <path id="Path_804" data-name="Path 804" d="M408.328,264.506a8.329,8.329,0,0,0,.037-4.132l-1.515.169a7.812,7.812,0,0,0-.882-2.172l1.2-.961a8.325,8.325,0,0,0-2.9-2.949l-.96,1.2a7.827,7.827,0,0,0-2.151-.925l.17-1.529a8.329,8.329,0,0,0-4.132-.037l.169,1.522a7.838,7.838,0,0,0-2.175.872l-.958-1.2a8.316,8.316,0,0,0-2.949,2.9l1.192.953a7.81,7.81,0,0,0-.926,2.157l-1.519-.17a8.331,8.331,0,0,0-.037,4.133l1.51-.168a7.88,7.88,0,0,0,.878,2.178l-1.193.954a8.325,8.325,0,0,0,2.9,2.949l.949-1.187a7.838,7.838,0,0,0,2.16.932l-.168,1.507a8.3,8.3,0,0,0,4.133.037l-.167-1.5a7.824,7.824,0,0,0,2.185-.878l.947,1.185a8.335,8.335,0,0,0,2.949-2.9l-1.184-.945a7.859,7.859,0,0,0,.923-2.163Zm-4.3-1.981a4.844,4.844,0,1,1-5-5A4.861,4.861,0,0,1,404.024,262.524Z" transform="translate(-376.766 -243.959)" fill="#c0621c" opacity="0.2"/>
        </g>
        <g id="Group_298" data-name="Group 298" transform="translate(3.712)">
          <g id="Group_291" data-name="Group 291" transform="translate(38.338 1.44)">
            <path id="Path_805" data-name="Path 805" d="M424.8,232.545s-7.571,1.527-3.841,9.546C425.284,251.4,424.8,232.545,424.8,232.545Z" transform="translate(-419.304 -230.928)" fill="#7c4e50"/>
            <path id="Path_806" data-name="Path 806" d="M422.514,235.971s-2.2,1.348-2.166,8.637c0,.252-.893,2.4-.973,2.658-.309.977.306,1.041,1.141,1.453.337,5.5,1.163,5.4,1.886,5.882.825.552,7.147-.751,11.2-2.762s5.438-8.016,3.723-11.7S427.259,232.8,422.514,235.971Z" transform="translate(-419.294 -230.964)" fill="#ffc8b0"/>
            <path id="Path_807" data-name="Path 807" d="M440.822,241.06c.65,3.454-1.04,8.733-7.814,11.019,0,0-.6-2.086-1.035-4.129s-6.174-4.384-8.667-6.615q-.186-.167-.348-.338a5.162,5.162,0,0,1-.059-6.789c1.4-1.72,4.477-4.564,10-2.691C437.833,233.189,440.018,236.791,440.822,241.06Z" transform="translate(-419.332 -230.902)" fill="#7c4e50"/>
            <path id="Path_808" data-name="Path 808" d="M424.54,249.027c1.065,1.154,1.267,3.488,1.178,5.717-.025.38-.048.759-.073,1.126a34.967,34.967,0,0,1-.609,4.191l7.814-.194a47.709,47.709,0,0,1,.192-7.521S422.022,246.294,424.54,249.027Z" transform="translate(-419.372 -231.183)" fill="#ffc8b0"/>
            <path id="Path_809" data-name="Path 809" d="M425.669,255.952a23.133,23.133,0,0,0,5.181-2.623c-2.188.711-5.108,1.5-5.108,1.5C425.717,255.205,425.694,255.584,425.669,255.952Z" transform="translate(-419.397 -231.264)" fill="#f2a181"/>
          </g>
          <g id="Group_292" data-name="Group 292" transform="translate(39.046 68.348)">
            <path id="Path_810" data-name="Path 810" d="M420.013,312.076l12.214-13.167s7.4,7.823,6.026,16.411c-.674,4.225-1.9,6.428-2.3,8.442-.377,1.882-1.337,27.985-.8,29.819s3.379,6.8,4.9,12.205c1.823,6.5,3.68,15.918,5.166,21.544s-.958,13.133-1.487,11.233c-4.514-16.241-16.34-34.927-18.272-43.087S422.035,332.124,420.013,312.076Z" transform="translate(-420.013 -298.909)" fill="#ffbe9d"/>
            <path id="Path_811" data-name="Path 811" d="M440.341,388.212s3.743,10.625,3.443,11.975c-.183.824-1.015,3.6-1.2,4-.076.157-2.758,2.288-.976,2.244,1.759-.044,5.931-5.59,6.55-6.009a2.638,2.638,0,0,0,1.231-2.73,11.439,11.439,0,0,0-2.274-4.026,16.54,16.54,0,0,1-1.451-4.387Z" transform="translate(-420.342 -300.352)" fill="#ffbe9d"/>
            <path id="Path_812" data-name="Path 812" d="M439.207,407.015a10.711,10.711,0,0,1,2.887-2.3h0c.331-.42.6-.691.463-.42-.231.451.959.682,1.546.2,2.044-1.642,2.63-4.09,3.638-5.251,1.439-1.652.432-3.831.277-4.2a9.52,9.52,0,0,1,2.943,1.318,5.52,5.52,0,0,1,1.559,1.739,23.607,23.607,0,0,0,1.4,3.2l-1.939,1.544-1.878-1.7-.519.548a4.457,4.457,0,0,0-1,2.044,10.905,10.905,0,0,1-.49,1.517,4.678,4.678,0,0,1-1.429,1.986l-.824.677a3.459,3.459,0,0,1-2.19.782H440.32l0,0h-.511a.877.877,0,0,1-.893-.967A1.854,1.854,0,0,1,439.207,407.015Z" transform="translate(-420.318 -300.463)" fill="#001118"/>
          </g>
          <g id="Group_293" data-name="Group 293" transform="translate(29.256 66.902)">
            <path id="Path_813" data-name="Path 813" d="M410.52,403.8c.265-.351,3.385-1.151,4.815-1.906a8.585,8.585,0,0,0,3.166-3.611c.261-.837-.184-4.918-.381-6.63-1.362-11.8-5.529-28.305-6.468-35.2-1.633-11.975-1.191-24.528,1.7-44.25l16.038-14.772s5.633,8.535,4.789,17.256c-.489,5.06-4.547,6.2-5.071,8.193S420.967,357,420.967,357a58.884,58.884,0,0,1,3.418,13.932c.668,6.295-1.1,13.384-.974,20.676.065,1.422.126,4.833.64,5.873.631,1.276,2.073,2.712,2.158,4.384a2.576,2.576,0,0,1-1.753,2.445c-1.187.489-1.931-.156-2.352-.135-2.438.118-2.959,1.849-7.153,2.225a6.66,6.66,0,0,1-4.318-1.356A.891.891,0,0,1,410.52,403.8Z" transform="translate(-410.066 -297.439)" fill="#ffbe9d"/>
            <path id="Path_814" data-name="Path 814" d="M410.289,406.979a3.126,3.126,0,0,0,.868.96,4.429,4.429,0,0,0,2.7.844h2.052a4.717,4.717,0,0,0,2.37-.636,11.243,11.243,0,0,0,1.332-.862,4.432,4.432,0,0,1,2.074-.95,6.066,6.066,0,0,1,1.324-.029l.145,2.476h2.832a13.97,13.97,0,0,1,.72-3.542,4.8,4.8,0,0,0-.2-2.169,10.1,10.1,0,0,0-1.824-2.871c-.115.385-.71,2.708-2.88,3.073-1.507.259-3.513,1.786-6.134,1.756-.759,0-1.536-.931-1.075-1.132s-.835.029-1.661.327a23.652,23.652,0,0,0-2.668,1.315C409.972,405.7,410.011,406.46,410.289,406.979Z" transform="translate(-410.062 -299.1)" fill="#001118"/>
          </g>
          <path id="Path_815" data-name="Path 815" d="M445.473,280.361s-.826,4.226-1.343,5.967-3.072,12.8-5.493,12.6-15.682-11.264-15.682-11.264l1.878-3.756,11.673,5.565s1.055-12.637,1.98-15.647Z" transform="translate(-381.015 -230.156)" fill="#ffc8b0"/>
          <path id="Path_816" data-name="Path 816" d="M442.207,280.906c-1.235,4.367-3.036,11.757-3.945,13.019-.408.566-8.815-2.92-8.834-5.956l8.114-9.2Z" transform="translate(-381.119 -230.236)" fill="#f2a181"/>
          <path id="Path_817" data-name="Path 817" d="M434.919,260.292a14.12,14.12,0,0,1,7.091,2.406c5.057,3.76,3.857,17.969,3.857,17.969s.247.742-3.113.554a24.187,24.187,0,0,1-6.055-1.145l.971-11.39Z" transform="translate(-381.208 -229.937)" fill="#094165"/>
          <path id="Path_818" data-name="Path 818" d="M443.409,269.033s.424,8.172-1.056,12.3a13.378,13.378,0,0,1-2.741-.36Z" transform="translate(-381.284 -230.078)" fill="#094165"/>
          <path id="Path_819" data-name="Path 819" d="M434.862,261.022c-.138-.926-.388-2-1.249-2.369a2.723,2.723,0,0,0-.76-.162,25.006,25.006,0,0,0-4.984-.379,7.4,7.4,0,0,0-3.214.565c-1.54.769-2.387,2.429-3.131,3.982Z" transform="translate(-380.991 -229.901)" fill="#094165"/>
          <path id="Path_820" data-name="Path 820" d="M445.129,385.98c-1.03-4.548-3.675-16.28-5.555-21.263s-4.489-10.349-4.586-11.165c-.082-.683.608-5.716.835-7.343a.19.19,0,0,0,.037-.112c-.024-.563,2.742-21.265,3.655-24.405A26.24,26.24,0,0,0,441.18,311.1c-.316-5.671-4.827-12.432-6.057-13.661l-20.867-.339s-3.6,8.505-3.948,13.766c-.726,11.084.387,34.434.387,34.434l.044.021a86.9,86.9,0,0,0,.651,9.089c.628,4.6,7.027,42.187,7.027,42.187a11.522,11.522,0,0,0,5.69-.63,3.855,3.855,0,0,1-.046-.808c-.237-4.531,1.815-18.951,0-27.774s-2.541-10.72-2.541-10.72l1.983-9.636c.028-.163.07-.558.128-.556a75.375,75.375,0,0,0,1.421,9.222c.95,3.525,10.069,23.323,13.687,31.85,1.239,2.918,2.353,6.185,2.353,6.185s4.346-.5,5.582-2.415A28.819,28.819,0,0,1,445.129,385.98Z" transform="translate(-380.806 -230.532)" fill="#094165"/>
          <path id="Path_821" data-name="Path 821" d="M414.6,293.175c.733-1.44,1.373-7.5,1.122-9.054-.27-1.662-1.74-2.555-2.4-6.251a13.67,13.67,0,0,1,2.19-10.047c1.543-2.242,3.662-6.791,4.1-6.924,6.447-1.962,7.5-1.025,11.831-.835a28.708,28.708,0,0,1,5.624.649c2.331.514,5.129,1.292,5.608,4.454a31.846,31.846,0,0,1-1.369,14.475c-.986,3.075-4.245,17.135-4.144,17.722.369,2.15-3.1,2.678-6.568,3.077a55.224,55.224,0,0,1-9.977-.062C410.824,299.715,414.3,293.775,414.6,293.175Z" transform="translate(-380.855 -229.927)" fill="#094165"/>
          <g id="Group_296" data-name="Group 296" transform="translate(0 32.177)">
            <path id="Path_822" data-name="Path 822" d="M417.105,276.621s-9.19,15.85-13.552,15.85c-2.5,0-16.5-16.714-16.5-16.714l4.742-1.274,11.437,7.876,6.944-11.431Z" transform="translate(-380.434 -262.285)" fill="#ffc8b0"/>
            <g id="Group_295" data-name="Group 295">
              <path id="Path_823" data-name="Path 823" d="M381.4,269.785a7.218,7.218,0,0,0-.042-.876c-.107-.631-.532-1.166-.681-1.789a9,9,0,0,1-.09-1.5c-.037-.567-.384-1.52.077-1.59-.091-.36-.234-.765-.311-1.129-.057-.275-.042-.8.274-.76.47.064.992.694,1.295.987.4.391,1.015,1.413,1.371,1.844a5.2,5.2,0,0,0,1.741,1.381s-.223-.4-.055-.6c.264-.313,1.128.245,2.074.38.49.069,1.686,1.538,2.084,1.959s.773,3.016.885,3.554a7.534,7.534,0,0,0,2.063,3.016l-4.073,2.012c-.1.045-.542-.541-.6-.609a2.727,2.727,0,0,0-.92-.744c-1.254-1.226-3.117-1.825-4.193-3.248a4.188,4.188,0,0,1-.892-2.248Z" transform="translate(-380.326 -262.143)" fill="#ffc8b0"/>
              <g id="Group_294" data-name="Group 294" transform="translate(4.441 4.172)">
                <path id="Path_824" data-name="Path 824" d="M385.1,266.426a5.43,5.43,0,0,0,1.772,1.057c.442.234.458.459.938.693-.693.136-.687-.3-1.741-.69a1.934,1.934,0,0,1-1.216-.864.16.16,0,0,1,.248-.2Z" transform="translate(-384.839 -266.384)" fill="#f2a181"/>
              </g>
            </g>
          </g>
          <path id="Path_825" data-name="Path 825" d="M425.508,259.686c-2.063.107-8.686.562-12.756,6.537-2.278,3.344-4.767,7.283-5.891,10.393.541,1.848,4.02,5.6,7.219,5.561.16-.119,5.833-4.681,6.737-9.393Z" transform="translate(-380.754 -229.927)" fill="#094165"/>
          <path id="Path_826" data-name="Path 826" d="M437.783,294.813a12.14,12.14,0,0,0-.106,2.036,13.157,13.157,0,0,0,.116,1.474,12.482,12.482,0,0,0,.372,1.793,13.872,13.872,0,0,0,1.909,4.241c-12.195,3.986-28.864-.626-28.864-.626s.551-1.877,1.251-4.358c.169-.636.36-1.3.551-1.993.149-.562.308-1.134.466-1.707.191-.69.372-1.389.552-2.057.466-1.782.87-3.415,1.092-4.528a13.412,13.412,0,0,0-.35-6.914c11.961-7.635,6.585-21.929,6.585-21.929,2.938-.975,7.519-.573,7.519-.573,10.54-.053,13.318,3.5,13.318,3.5a26.15,26.15,0,0,1-.127,14.676C441.388,279.9,438.514,289.384,437.783,294.813Z" transform="translate(-380.825 -229.926)" fill="#ff9100"/>
          <path id="Path_827" data-name="Path 827" d="M441.92,267.183c-3.711,2.226-8.272,1.97-11.439,1.366.149-2.533-.069-7.7-.069-7.7a68.286,68.286,0,0,1-1.039,7.461,21.117,21.117,0,0,1-2.721-.812s2.494-12.251,2.494-17.633c-.01-4.631-4.889-7.808-4.889-7.808l8.258-10.671a13.021,13.021,0,0,1,8.346,9.682C441.781,244.978,441.92,267.183,441.92,267.183Z" transform="translate(-381.036 -229.47)" fill="#39383e"/>
          <path id="Path_828" data-name="Path 828" d="M434.175,316.34a17.159,17.159,0,0,1-3,6.392l-7.05,26.464s-.131-1.108-.274-2.411c2.285-9.628,5.138-22.321,5.474-23.588C429.8,321.386,433.176,320.288,434.175,316.34Z" transform="translate(-381.029 -230.843)" fill="#5275a0" opacity="0.35"/>
          <path id="Path_829" data-name="Path 829" d="M437.821,295.372a12.143,12.143,0,0,0-.106,2.036,51.033,51.033,0,0,1-24.2-1.177c.191-.69.372-1.389.552-2.057C414.068,294.174,420.891,297.386,437.821,295.372Z" transform="translate(-380.862 -230.485)" fill="#ff5b00"/>
          <path id="Path_830" data-name="Path 830" d="M438.186,300.736c-.807.222-1.347.36-1.347.36a52.15,52.15,0,0,1-24.357-1.1c.169-.635.36-1.3.551-1.993,1.114.615,8.073,3.263,23.305,1.324.341-.043,1.169-.338,1.476-.381A12.485,12.485,0,0,0,438.186,300.736Z" transform="translate(-380.845 -230.546)" fill="#ff5b00"/>
          <g id="Group_297" data-name="Group 297" transform="translate(35.465)">
            <path id="Path_831" data-name="Path 831" d="M441.949,243.607c-.042.488-.784.488-.784.488a62.079,62.079,0,0,1-9.756-.158c-.075,0-.541-.022-1.262-.053q-.732-.016-1.527-.064a.5.5,0,0,0-.127,0c-4.1-.191-11.156-.6-11.929-1.23-1.1-.881,2.926-1.941,2.926-1.941h.011c-.117-3.287.679-11,10.806-11.208a19.779,19.779,0,0,1,1.982.064h.011l.011.01c9.819.827,9.586,9.671,9.108,13.171A.845.845,0,0,1,441.949,243.607Z" transform="translate(-416.373 -229.438)" fill="#ffb41d"/>
            <path id="Path_832" data-name="Path 832" d="M442.175,243.609c-.042.488-.784.488-.784.488a62.074,62.074,0,0,1-9.756-.158c-.075,0-.541-.022-1.262-.053,5.949.127,8.6-1.294,8.6-1.294.792-11.926-6.034-12.936-6.436-13.075,9.819.827,9.586,9.671,9.108,13.171A.846.846,0,0,1,442.175,243.609Z" transform="translate(-416.599 -229.439)" fill="#ffa515"/>
          </g>
        </g>
      </g>
    </g>
  </g>
</svg>
