<svg xmlns="http://www.w3.org/2000/svg" width="89.431" height="22.421" viewBox="0 0 89.431 22.421">
  <g id="Group_157" data-name="Group 157" transform="translate(-109.23 -136.88)">
    <rect id="Rectangle_46" data-name="Rectangle 46" width="10.496" height="19.656" transform="translate(111.842 139.046)" fill="#fd9600"/>
    <g id="Group_156" data-name="Group 156" transform="translate(109.23 136.88)">
      <path id="Path_419" data-name="Path 419" d="M156.747,147.971a11.355,11.355,0,0,1,.9-4.6,10.232,10.232,0,0,1,2.473-3.492,10.993,10.993,0,0,1,3.732-2.218,14.415,14.415,0,0,1,9.352,0,11.163,11.163,0,0,1,3.747,2.218,10.132,10.132,0,0,1,2.488,3.492,11.355,11.355,0,0,1,.9,4.6,11.671,11.671,0,0,1-.9,4.646,10.486,10.486,0,0,1-2.488,3.582,11.173,11.173,0,0,1-3.747,2.293,13.913,13.913,0,0,1-9.352,0,11,11,0,0,1-3.732-2.293,10.592,10.592,0,0,1-2.473-3.582A11.671,11.671,0,0,1,156.747,147.971Zm7.584,0a5.6,5.6,0,0,0,.315,1.918,4.607,4.607,0,0,0,.869,1.5,3.8,3.8,0,0,0,1.334.974,4.1,4.1,0,0,0,1.679.344,3.956,3.956,0,0,0,3-1.319,4.482,4.482,0,0,0,.884-1.5,5.6,5.6,0,0,0,.315-1.918,5.386,5.386,0,0,0-.315-1.874,4.029,4.029,0,0,0-.884-1.439,4.114,4.114,0,0,0-3-1.244,4.266,4.266,0,0,0-1.679.329,3.918,3.918,0,0,0-1.334.914,4.132,4.132,0,0,0-.869,1.439A5.386,5.386,0,0,0,164.331,147.971Z" transform="translate(-137.353 -136.88)" fill="#003354"/>
      <path id="Path_420" data-name="Path 420" d="M219.156,138.349H228.3a15.5,15.5,0,0,1,3.1.315,7.848,7.848,0,0,1,2.758,1.109,6.018,6.018,0,0,1,1.964,2.128,6.757,6.757,0,0,1,.749,3.342,6,6,0,0,1-3.707,5.725l5.385,8.6h-8.195l-4.066-7.584h-.209v7.584h-6.924Zm6.864,8.962h1.4a5.7,5.7,0,0,0,.789-.06,2.421,2.421,0,0,0,.8-.255,1.8,1.8,0,0,0,.625-.54,1.509,1.509,0,0,0,.253-.914,1.674,1.674,0,0,0-.209-.9,1.338,1.338,0,0,0-.535-.495,2.113,2.113,0,0,0-.713-.21,6.166,6.166,0,0,0-.714-.045h-1.7Z" transform="translate(-174.29 -137.749)" fill="#003354"/>
      <path id="Path_421" data-name="Path 421" d="M277.368,138.349h7.584l8.273,21.222h-7.763l-1.109-3.117h-6.744l-1.049,3.117h-7.554Zm3.687,7.4L279.316,151h3.447Z" transform="translate(-203.793 -137.749)" fill="#003354"/>
      <path id="Path_422" data-name="Path 422" d="M123.239,150.968a6.005,6.005,0,0,0,3.706-5.725,6.752,6.752,0,0,0-.749-3.342,6.013,6.013,0,0,0-1.963-2.128,7.851,7.851,0,0,0-2.758-1.109,15.5,15.5,0,0,0-3.1-.315H109.23v21.222h6.221a.3.3,0,0,0,.3-.3v-8.219l-2.117-1.653.005-3.912,2.089-.966V147.4l1.919.807,1.887-.807v-2.927h.01l2.112,1.006.006,3.912-2.036,1.589v7.1l.037,1.2a.3.3,0,0,0,.3.3h8.652Zm-3.207-8.36a.17.17,0,0,1-.083.148c-.051.029-.1.055-.156.082s-.123.041-.147.113a.075.075,0,0,1-.051.034l-.1.023c.005.056.009.112.009.169a1.846,1.846,0,1,1-3.692,0c0-.057,0-.113.009-.169l-.1-.023a.074.074,0,0,1-.051-.034c-.024-.071-.092-.083-.147-.113s-.106-.053-.157-.082a.167.167,0,0,1-.083-.145c0-.173,0-.347,0-.52,0-.082.051-.136.152-.16a.054.054,0,0,0,.042-.041,2.079,2.079,0,0,1,.221-.585,2.208,2.208,0,0,1,.673-.744,1.022,1.022,0,0,1,.333-.182c.033-.013.04.01.048.026.029.055.234.6.385,1.006.038-.011.077-.021.116-.03-.039-.391-.09-.9-.109-1-.009-.05-.021-.1-.029-.149a.243.243,0,0,1,.094-.212.367.367,0,0,1,.251-.1l.207,0h0l.207,0a.367.367,0,0,1,.251.1.242.242,0,0,1,.093.212c-.007.05-.019.1-.029.149-.018.1-.066.611-.1,1,.035.008.07.016.1.027.139-.408.33-.966.359-1.022.008-.016.014-.038.048-.026a1.225,1.225,0,0,1,.365.2,2.209,2.209,0,0,1,.673.744,2.086,2.086,0,0,1,.221.585.054.054,0,0,0,.041.041c.1.024.152.078.152.16C120.035,142.263,120.032,142.436,120.032,142.608Z" transform="translate(-109.23 -137.749)" fill="#003354"/>
    </g>
  </g>
</svg>
