<svg xmlns="http://www.w3.org/2000/svg" width="353.814" height="338.361" viewBox="0 0 353.814 338.361">
  <g id="Group_973" data-name="Group 973" transform="translate(-81.357 -70.714)">
    <path id="Path_1762" data-name="Path 1762" d="M279.132,400.224c0,4.886-25.346,8.851-56.616,8.851S165.9,405.11,165.9,400.224s25.347-8.854,56.613-8.854S279.132,395.335,279.132,400.224Z" fill="#e0e0e0"/>
    <g id="Group_931" data-name="Group 931">
      <path id="Path_1763" data-name="Path 1763" d="M204.6,271.654a55.248,55.248,0,0,0,.249-27.428L194.8,245.347a51.978,51.978,0,0,0-5.851-14.417l7.981-6.379a55.252,55.252,0,0,0-19.219-19.57l-6.375,7.975a52.052,52.052,0,0,0-14.273-6.137l1.132-10.145a55.248,55.248,0,0,0-27.428-.249l1.126,10.1a51.965,51.965,0,0,0-14.438,5.787l-6.363-7.96a55.261,55.261,0,0,0-19.57,19.218l7.916,6.328a52.02,52.02,0,0,0-6.145,14.313l-10.078-1.124a55.248,55.248,0,0,0-.249,27.428L92.987,269.4a51.981,51.981,0,0,0,5.825,14.46l-7.922,6.332a55.244,55.244,0,0,0,19.219,19.571l6.3-7.88a52.052,52.052,0,0,0,14.334,6.181l-1.116,10.006a55.248,55.248,0,0,0,27.428.249l-1.11-9.958a52,52,0,0,0,14.5-5.829l6.284,7.861A55.252,55.252,0,0,0,196.3,291.17l-7.855-6.279a52.025,52.025,0,0,0,6.121-14.357ZM176.038,258.5a32.146,32.146,0,1,1-33.179-33.184A32.259,32.259,0,0,1,176.038,258.5Z" fill="#c9f1f4"/>
      <g id="Group_930" data-name="Group 930">
        <path id="Path_1764" data-name="Path 1764" d="M143.891,297.3A39.926,39.926,0,0,1,104,256.066a39.976,39.976,0,0,1,38.6-38.6,39.927,39.927,0,0,1,41.207,41.214l-.353-.011.353.011a39.97,39.97,0,0,1-38.594,38.594Q144.553,297.295,143.891,297.3Zm.04-79.144q-.649,0-1.3.021a39.268,39.268,0,0,0-37.917,37.917,39.217,39.217,0,1,0,39.22-37.938Z" fill="#c9f1f4"/>
      </g>
    </g>
    <g id="Group_937" data-name="Group 937">
      <g id="Group_936" data-name="Group 936">
        <g id="Group_935" data-name="Group 935">
          <g id="Group_934" data-name="Group 934">
            <g id="Group_932" data-name="Group 932">
              <path id="Path_1765" data-name="Path 1765" d="M164.615,134.455H90.03c-11.246,0-11.387-12.789-1.4-15.361a20.809,20.809,0,0,1,17.559,3.406s2.708-31.432,28.383-27.741c20.24,2.909,19.064,23.115,19.064,23.115s4.166-8.316,15.085-5.169C180.109,115.987,178.874,134.455,164.615,134.455Z" fill="#c9f1f4"/>
              <path id="Path_1766" data-name="Path 1766" d="M369.262,122.184h54.513c8.219,0,8.322-9.347,1.026-11.227a15.206,15.206,0,0,0-12.833,2.49s-1.98-22.973-20.745-20.276c-14.793,2.126-13.934,16.894-13.934,16.894s-3.044-6.077-11.025-3.778C357.938,108.687,358.841,122.184,369.262,122.184Z" fill="#c9f1f4"/>
            </g>
            <g id="Group_933" data-name="Group 933">
              <path id="Path_1767" data-name="Path 1767" d="M347.014,133.882h-1.96v-1.961a.573.573,0,0,0-1.147,0v1.961h-1.96a.573.573,0,0,0,0,1.146h1.96v1.961a.573.573,0,0,0,1.147,0v-1.961h1.96a.573.573,0,0,0,0-1.146Z" fill="#f9c9b7"/>
              <path id="Path_1768" data-name="Path 1768" d="M348.459,84.447H346.5V82.486a.573.573,0,0,0-1.146,0v1.961h-1.961a.574.574,0,0,0,0,1.147h1.961v1.96a.573.573,0,0,0,1.146,0v-1.96h1.96a.574.574,0,1,0,0-1.147Z" fill="#f9c9b7"/>
              <path id="Path_1769" data-name="Path 1769" d="M176.465,220.686H174.5v-1.96a.573.573,0,1,0-1.146,0v1.96H171.4a.573.573,0,0,0,0,1.147h1.961v1.96a.573.573,0,1,0,1.146,0v-1.96h1.961a.573.573,0,0,0,0-1.147Z" fill="#f9c9b7"/>
              <path id="Path_1770" data-name="Path 1770" d="M434.6,210.517h-1.961v-1.961a.573.573,0,0,0-1.146,0v1.961h-1.961a.573.573,0,0,0,0,1.146h1.961v1.961a.573.573,0,1,0,1.146,0v-1.961H434.6a.573.573,0,0,0,0-1.146Z" fill="#f9c9b7"/>
              <path id="Path_1771" data-name="Path 1771" d="M167.1,90.833h-1.96V88.872a.574.574,0,0,0-1.147,0v1.961h-1.96a.573.573,0,0,0,0,1.146h1.96v1.96a.574.574,0,1,0,1.147,0v-1.96h1.96a.573.573,0,0,0,0-1.146Z" fill="#f9c9b7"/>
              <circle id="Ellipse_32" data-name="Ellipse 32" cx="2.028" cy="2.028" r="2.028" transform="translate(192.86 152.044)" fill="#f9c9b7"/>
              <path id="Path_1772" data-name="Path 1772" d="M333.39,284.485a2.028,2.028,0,1,1-2.028-2.028A2.028,2.028,0,0,1,333.39,284.485Z" fill="#f9c9b7"/>
              <path id="Path_1773" data-name="Path 1773" d="M101.5,233.415a2.028,2.028,0,1,1-2.028-2.028A2.027,2.027,0,0,1,101.5,233.415Z" fill="#f9c9b7"/>
              <circle id="Ellipse_33" data-name="Ellipse 33" cx="2.028" cy="2.028" r="2.028" transform="translate(238.352 70.714)" fill="#f9c9b7"/>
              <path id="Path_1774" data-name="Path 1774" d="M416.7,221.066a2.027,2.027,0,1,1-2.027-2.028A2.027,2.027,0,0,1,416.7,221.066Z" fill="#f9c9b7"/>
            </g>
          </g>
        </g>
      </g>
    </g>
    <g id="Group_941" data-name="Group 941">
      <g id="Group_940" data-name="Group 940">
        <g id="Group_939" data-name="Group 939">
          <g id="Group_938" data-name="Group 938">
            <path id="Path_1775" data-name="Path 1775" d="M431.168,259.325a19.6,19.6,0,0,0-19.524-19.6H375.959l-59.526-.141c10.069-29.287,4.011-83.715,4.011-83.715,0-10.535-9.235-19.154-20.762-19.154-11.44,0-20.777,8.619-20.777,19.154v20.155c-5.491,67.018-56.4,84.541-56.4,84.541l-2.641,117.84s16.657,16.435,92.051,17.932c.726.071,1.442.126,2.16.126h71.281a19.607,19.607,0,1,0,0-39.214h8.77a19.592,19.592,0,0,0,0-39.183h8.761a19.591,19.591,0,0,0,0-39.182h8.762A19.559,19.559,0,0,0,431.168,259.325Z" fill="#bcdddd"/>
          </g>
        </g>
      </g>
      <path id="Path_1776" data-name="Path 1776" d="M205.226,385.4H173.217c-9.54,0-17.274-9.833-17.274-21.961V262.527c0-12.129,7.734-21.961,17.274-21.961h32.009c9.54,0,24.222,9.832,24.222,21.961V363.441C229.448,375.569,214.766,385.4,205.226,385.4Z" fill="#bcdddd"/>
    </g>
    <path id="Path_1777" data-name="Path 1777" d="M220.882,169.866s-.187,3.512-6.647,3.684c-5.1.135-5.267-2.814-5.267-2.814" fill="#fff"/>
    <g id="Group_954" data-name="Group 954">
      <path id="Path_1778" data-name="Path 1778" d="M357.722,144.045a9.325,9.325,0,0,1,6.335-.493,12.336,12.336,0,0,1,6.366,3.953,15.383,15.383,0,0,1,3.2,7.023,20.488,20.488,0,0,1-.309,9.214c-.957,3.577-2.885,6.895-3.339,10.57-.313,2.532.406,5.559,2.743,6.583-3.97,1.926-8.978.309-12.055-2.854s-4.561-7.541-5.471-11.858a69.436,69.436,0,0,1-1.269-14.028C353.9,148.808,354.294,145.733,357.722,144.045Z" fill="#21283a"/>
      <g id="Group_949" data-name="Group 949">
        <g id="Group_948" data-name="Group 948">
          <g id="Group_942" data-name="Group 942">
            <path id="Path_1779" data-name="Path 1779" d="M329.325,235.068c-1.737,1.931-3.762,4.93-3.043,7.584.677,2.5,4.036,2.66,6.19,2.551a67.256,67.256,0,0,0,22.8-5.244,6.013,6.013,0,0,0,1.8-1.036,4.952,4.952,0,0,0,1.273-3.7c-.038-8.648-10.044-13.4-17.36-9.585a23.508,23.508,0,0,0-3.374,2.286,65.941,65.941,0,0,0-7.911,6.745C329.575,234.795,329.45,234.929,329.325,235.068Z" fill="#0e354f"/>
          </g>
          <g id="Group_947" data-name="Group 947">
            <g id="Group_943" data-name="Group 943">
              <path id="Path_1780" data-name="Path 1780" d="M369.17,226.819a2.135,2.135,0,0,0,.07-1.08c-.286-2.35-1.033-4.616-1.546-6.927a35.287,35.287,0,0,1,.317-16.508c.6-2.3,1.443-4.549,1.86-6.893.39-2.2.526-5.374-.781-7.336-1.279-1.919-4.366-2.832-6.478-3.289a44.894,44.894,0,0,0-8.54-1.26,19.711,19.711,0,0,0-6.821,1.2,32.348,32.348,0,0,0-4.24,1.813,24.053,24.053,0,0,0-4.1,2.5,4.091,4.091,0,0,0-1.527,1.758,3.471,3.471,0,0,0,.411,1.743c.484,1.213,1.215,2.305,1.736,3.5.046.106.089.212.13.32a41.709,41.709,0,0,1,1.421,24.432c-.464,1.859-1.058,3.685-1.463,5.558a2.313,2.313,0,0,0-.039,1.178c.243.763,1.137,1.072,1.916,1.256a49.089,49.089,0,0,0,26.612-1.21,1.827,1.827,0,0,0,.954-.561A1.051,1.051,0,0,0,369.17,226.819Z" fill="#e94f24"/>
              <path id="Path_1781" data-name="Path 1781" d="M371.713,192.265a33.411,33.411,0,0,1,1.267,4.261,161.669,161.669,0,0,1,3.5,19.719,3.527,3.527,0,0,1-.163,2,2.664,2.664,0,0,1-2.161,1.249,5.128,5.128,0,0,1-4.929-2.588,9.816,9.816,0,0,1-.883-3.021q-1.482-8.409-2.342-16.911a16.587,16.587,0,0,1,.27-6.811c.567-1.928,2.1-3.334,3.64-1.251A14.349,14.349,0,0,1,371.713,192.265Z" fill="#e94f24"/>
              <path id="Path_1782" data-name="Path 1782" d="M357.182,219.415c1.319-.461,2.853-.9,4.046-.177s1.5,2.3,1.457,3.681a1.836,1.836,0,0,1-2.094,2.05c-2.875.223-5.691-.766-8.4-1.74A.828.828,0,0,1,351.8,223c-.238-.3.027-.722.1-1.1a1.973,1.973,0,0,1,.129-.656,1.028,1.028,0,0,1,.712-.379C354.3,220.527,355.65,219.858,357.182,219.415Z" fill="#f2bb9d"/>
              <path id="Path_1783" data-name="Path 1783" d="M348.993,178.543c.257.025.741,1.207.842,1.43a7.835,7.835,0,0,1,.557,1.781c.317,1.711-.5,2.146-1.841,3a22.9,22.9,0,0,1-4.07,2.046c2.011,2.366,5.35,3.076,8.45,3.258,4.328.253,8.986-.37,12.271-3.2l-4.874-1.625c-1.346-.449-2.148-.981-2.134-2.464a12.55,12.55,0,0,1,.613-3.27Z" fill="#f2bb9d"/>
            </g>
            <path id="Path_1784" data-name="Path 1784" d="M350.579,182.557l7.507.224S353.96,187.8,350.579,182.557Z" fill="#3d3a37" opacity="0.2"/>
            <g id="Group_946" data-name="Group 946">
              <path id="Path_1785" data-name="Path 1785" d="M344.649,175.051c1.316,4.4,5.062,8.416,9.651,8.522,3.619.085,6.967-2.293,8.887-5.363s2.625-6.739,2.976-10.342c.418-4.283.205-9.093-2.8-12.175-2.047-2.1-5.038-2.989-7.945-3.37C341.9,150.55,341.847,165.687,344.649,175.051Z" fill="#f2bb9d"/>
              <g id="Group_944" data-name="Group 944">
                <path id="Path_1786" data-name="Path 1786" d="M365.343,168.532a1.315,1.315,0,0,1,.819-.874,1.542,1.542,0,0,1,1.562.428,2.287,2.287,0,0,1,.583,1.565,4.554,4.554,0,0,1-.356,1.662,3.125,3.125,0,0,1-1.289,1.721,3.745,3.745,0,0,1-2.032.246Z" fill="#f2bb9d"/>
              </g>
              <g id="Group_945" data-name="Group 945">
                <path id="Path_1787" data-name="Path 1787" d="M343.951,168.532a1.315,1.315,0,0,0-.819-.874,1.542,1.542,0,0,0-1.562.428,2.282,2.282,0,0,0-.582,1.565,4.533,4.533,0,0,0,.355,1.662,3.125,3.125,0,0,0,1.289,1.721,3.745,3.745,0,0,0,2.032.246Z" fill="#f2bb9d"/>
              </g>
            </g>
          </g>
        </g>
      </g>
      <path id="Path_1788" data-name="Path 1788" d="M365.7,153.55a11.687,11.687,0,0,1,2.6,6.351,16.576,16.576,0,0,1-1.616,9.3,6.667,6.667,0,0,0-3.117-3.277,14.592,14.592,0,0,1-3.739-2.654,9.737,9.737,0,0,1-1.9-5.337,11.112,11.112,0,0,1,.09-3.864C359.1,149.621,363.282,150.793,365.7,153.55Z" fill="#21283a"/>
      <path id="Path_1789" data-name="Path 1789" d="M353.828,163.768c3.763-2.031,7.067-5.331,8.142-9.516a2.838,2.838,0,0,0,.111-1.191,2.714,2.714,0,0,0-.715-1.274,10.253,10.253,0,0,0-7.544-3.228c-5.254-.071-9.763,2.3-11.771,7.237-1.638,4.029-2.6,8.482-1.782,12.764C344.818,167.1,349.537,165.908,353.828,163.768Z" fill="#21283a"/>
      <path id="Path_1790" data-name="Path 1790" d="M341.364,281.378a.409.409,0,0,0,.113.066.778.778,0,0,0,.4.013,8.355,8.355,0,0,0,3.432-1.344c-1.107-7.064-.825-14.038-3.441-20.906a11.664,11.664,0,0,0-2.316-4.1,4.958,4.958,0,0,0-4.255-1.634,2.9,2.9,0,0,0-2.359,2.5,6.471,6.471,0,0,0,.566,2.662c2.711,7.382,5.432,14.632,7.571,22.2A1.039,1.039,0,0,0,341.364,281.378Z" fill="#f2bb9d"/>
      <path id="Path_1791" data-name="Path 1791" d="M326.113,240.133c-1.516,3.528,1.264,7.672,1.981,11.111a82.935,82.935,0,0,1,1.674,13.432,1.463,1.463,0,0,0,.182.783c.308.445.967.4,1.5.3a27.727,27.727,0,0,0,12.222-5.778,2.738,2.738,0,0,0,.876-1.028,2.89,2.89,0,0,0-.117-1.852c-.417-1.434-5.45-19.813-5.281-19.849a9.5,9.5,0,0,1-2.376.407q-1.332-.063-2.667-.077a27.091,27.091,0,0,0-5.3.381,4.141,4.141,0,0,0-1.288.408,2.783,2.783,0,0,0-.943.91A5.415,5.415,0,0,0,326.113,240.133Z" fill="#0e354f"/>
      <g id="Group_950" data-name="Group 950">
        <path id="Path_1792" data-name="Path 1792" d="M335.186,288.982a2.6,2.6,0,0,0-.547.917,2.5,2.5,0,0,0,.211,1.44,6.122,6.122,0,0,0,.536,1.187,1.929,1.929,0,0,0,.917.815,2.824,2.824,0,0,0,2.15-.327,20.464,20.464,0,0,0,5.777-4.036,19.016,19.016,0,0,1,2.1-1.978c1.315-.96,2.964-1.4,4.22-2.442a1.085,1.085,0,0,0,.4-.514,1.113,1.113,0,0,0-.024-.534,7.5,7.5,0,0,0-.242-.847,7.852,7.852,0,0,0-4.025-4.466,1.227,1.227,0,0,0-1-.126,1.553,1.553,0,0,0-.577.663,4.491,4.491,0,0,1-2.746,1.937c-1.539.374-1.886-.331-2.76,1.08C338.061,284.18,336.992,286.71,335.186,288.982Z" fill="#4268ad"/>
        <path id="Path_1793" data-name="Path 1793" d="M350.679,282.663a7.5,7.5,0,0,1,.242.847,1.113,1.113,0,0,1,.024.534,1.085,1.085,0,0,1-.4.514c-1.256,1.037-2.9,1.482-4.22,2.442a19.016,19.016,0,0,0-2.1,1.978,20.464,20.464,0,0,1-5.777,4.036,2.824,2.824,0,0,1-2.15.327,1.929,1.929,0,0,1-.917-.815,3.653,3.653,0,0,0,1.2.022,7.808,7.808,0,0,0,3.984-2.2c1.13-1.046,2.124-2.241,3.326-3.2C346.007,285.458,348.7,284.493,350.679,282.663Z" fill="#e5ac48"/>
        <path id="Path_1794" data-name="Path 1794" d="M338.351,283.568a3.308,3.308,0,0,1,2.616.514" fill="none" stroke="#e5ac48" stroke-linecap="round" stroke-miterlimit="10" stroke-width="0.7"/>
        <path id="Path_1795" data-name="Path 1795" d="M337.193,285.322a2.844,2.844,0,0,1,.632.01,3.009,3.009,0,0,1,1.149.26,1.148,1.148,0,0,1,.318.24" fill="none" stroke="#e5ac48" stroke-linecap="round" stroke-miterlimit="10" stroke-width="0.7"/>
      </g>
      <path id="Path_1796" data-name="Path 1796" d="M331.336,226.366c-1.495.235-3.291.77-3.614,2.249-.283,1.3.783,2.466,1.793,3.326,7.848,6.693,18.268,10.758,28.514,9.577,3.959-.456,8.289-2.072,9.84-5.743,1.143-2.7.486-7.248-1.609-9.44-2.059-2.153-6.748-1.483-9.553-1.567A136.97,136.97,0,0,0,331.336,226.366Z" fill="#0e354f"/>
      <g id="Group_952" data-name="Group 952">
        <path id="Path_1797" data-name="Path 1797" d="M311.285,263.032a.45.45,0,0,0,.027.128.8.8,0,0,0,.26.309,8.366,8.366,0,0,0,3.3,1.654c4.512-5.546,9.888-10,13.247-16.535a11.68,11.68,0,0,0,1.5-4.464,4.963,4.963,0,0,0-1.63-4.257,2.9,2.9,0,0,0-3.437-.082,6.439,6.439,0,0,0-1.6,2.2c-3.678,6.95-7.251,13.821-11.451,20.471A1.052,1.052,0,0,0,311.285,263.032Z" fill="#f2bb9d"/>
        <g id="Group_951" data-name="Group 951">
          <path id="Path_1798" data-name="Path 1798" d="M301.5,263.52a2.593,2.593,0,0,0-1.047.207,2.5,2.5,0,0,0-.93,1.12,6.03,6.03,0,0,0-.524,1.192,1.926,1.926,0,0,0,.007,1.226,2.821,2.821,0,0,0,1.68,1.381,20.454,20.454,0,0,0,6.863,1.6,18.877,18.877,0,0,1,2.874.238c1.593.336,3.027,1.265,4.637,1.506a1.089,1.089,0,0,0,.648-.048,1.126,1.126,0,0,0,.382-.376,7.456,7.456,0,0,0,.467-.746,7.853,7.853,0,0,0,.631-5.978,1.229,1.229,0,0,0-.577-.832,1.559,1.559,0,0,0-.879.015,4.5,4.5,0,0,1-3.277-.748c-1.306-.895-1.014-1.624-2.648-1.331C306.994,262.448,304.4,263.345,301.5,263.52Z" fill="#4268ad"/>
          <path id="Path_1799" data-name="Path 1799" d="M316.557,270.818a7.456,7.456,0,0,1-.467.746,1.126,1.126,0,0,1-.382.376,1.089,1.089,0,0,1-.648.048c-1.61-.241-3.044-1.17-4.637-1.506a18.877,18.877,0,0,0-2.874-.238,20.454,20.454,0,0,1-6.863-1.6,2.821,2.821,0,0,1-1.68-1.381,1.926,1.926,0,0,1-.007-1.226,3.66,3.66,0,0,0,.787.909,7.812,7.812,0,0,0,4.3,1.492c1.533.141,3.086.082,4.606.332C311.356,269.212,313.87,270.566,316.557,270.818Z" fill="#e5ac48"/>
          <path id="Path_1800" data-name="Path 1800" d="M307.643,262.255a3.3,3.3,0,0,1,1.366,2.289" fill="none" stroke="#e5ac48" stroke-linecap="round" stroke-miterlimit="10" stroke-width="0.7"/>
          <path id="Path_1801" data-name="Path 1801" d="M305.564,262.566a2.819,2.819,0,0,1,.415.477,3,3,0,0,1,.575,1.029,1.127,1.127,0,0,1,.034.4" fill="none" stroke="#e5ac48" stroke-linecap="round" stroke-miterlimit="10" stroke-width="0.7"/>
        </g>
      </g>
      <path id="Path_1802" data-name="Path 1802" d="M318.029,250.045a13.356,13.356,0,0,0,7.374,3.45,39.758,39.758,0,0,0,8.258.176,2.3,2.3,0,0,0,1.087-.234,2.2,2.2,0,0,0,.8-1.221,46.775,46.775,0,0,0,1.629-6.479q1.11-5.507,2.219-11.013a9.71,9.71,0,0,0,.269-2.168,6.342,6.342,0,0,0-4.178-5.362c-5.794-2.319-7.78.334-9.842,5.131Q321.838,241.185,318.029,250.045Z" fill="#0e354f"/>
      <path id="Path_1803" data-name="Path 1803" d="M358.37,221.1c1.675-1.589,4.46-1.751,6.636-2.8a25.815,25.815,0,0,0,3.639-2.485,7.5,7.5,0,0,1,4.124-1.613,3.441,3.441,0,0,1,3.517,2.522c.248,1.439-.739,2.955-2.1,3.965a16.584,16.584,0,0,1-4.732,2.151q-5.913,1.939-11.986,3.4Z" fill="#e94f24"/>
      <g id="Group_953" data-name="Group 953">
        <path id="Path_1804" data-name="Path 1804" d="M350.73,225.9l-1.935-9.678,8-.258-.516,9.936Z" fill="#30363a"/>
        <path id="Path_1805" data-name="Path 1805" d="M353.61,220.959a7.931,7.931,0,0,0-3.308,1.184.626.626,0,0,0-.316.493c.026.329.464.418.8.41a27.8,27.8,0,0,0,2.825-.218l-2.058.884a3.351,3.351,0,0,0-1.185.719,1.143,1.143,0,0,0-.245,1.283.7.7,0,0,0,1.15.1.653.653,0,0,0-.056.96,1.468,1.468,0,0,0,1,.391,4.35,4.35,0,0,0,1.1-.05.745.745,0,0,1,.481.015,1.145,1.145,0,0,1,.244.238,1.629,1.629,0,0,0,1.637.141,4.741,4.741,0,0,0,2.621-1.575,5.478,5.478,0,0,0,.5-3.788,48.934,48.934,0,0,1-.44-5.522.411.411,0,0,0-.034-.2.27.27,0,0,0-.3-.109.648.648,0,0,0-.286.18,3.669,3.669,0,0,0-.915,1.609c-.112.364-.194.735-.275,1.107-.174.793-.181,1.117-.989,1.386A15.361,15.361,0,0,1,353.61,220.959Z" fill="#f2bb9d"/>
      </g>
      <path id="Path_1806" data-name="Path 1806" d="M348.795,216.221l.417-.331,7.249-.237.334.31Z" fill="#474e51"/>
      <path id="Path_1807" data-name="Path 1807" d="M353.025,217.559c0,.118-.068.214-.151.214s-.15-.1-.15-.214.067-.215.15-.215S353.025,217.44,353.025,217.559Z" fill="#252728"/>
    </g>
    <path id="Path_1808" data-name="Path 1808" d="M358.086,175.151s-.086,2.351-3.752,2.429c-2.894.061-3.007-1.915-3.007-1.915" fill="#fff"/>
    <g id="Group_968" data-name="Group 968">
      <path id="Path_1809" data-name="Path 1809" d="M252.233,244.093c-3.613,2.109-6.87,3.749-8.607,4.59-.832.4-1.309.622-1.309.622l-.55-5.98-.363-3.968s2.472-1.7,5.438-3.814c4.283-3.071,9.577-7.031,9.819-8.041.178-.752-2.053-4.049-5.075-7.766a97.189,97.189,0,0,0-6.659-7.411,28.568,28.568,0,0,0-5.439-4.485c-5.454-3-1.01-12.615-1.01-12.615s6.789-.574,9.5,1.616a79.1,79.1,0,0,1,8.994,10.369c1.043,1.39,2.109,2.836,3.144,4.315,3.782,5.415,7.2,11.185,8.267,15.33C269.834,232.488,260.193,239.43,252.233,244.093Z" fill="#f2bb9d"/>
      <path id="Path_1810" data-name="Path 1810" d="M260.112,211.525a48.494,48.494,0,0,1-8.526,8.211,97.189,97.189,0,0,0-6.659-7.411l12.041-5.115C258.011,208.6,259.077,210.046,260.112,211.525Z" fill="#d3a18c"/>
      <path id="Path_1811" data-name="Path 1811" d="M252.233,244.093c-3.613,2.109-6.87,3.749-8.607,4.59l-1.859-5.358-.363-3.968s2.472-1.7,5.438-3.814A27.959,27.959,0,0,1,252.233,244.093Z" fill="#d3a18c"/>
      <path id="Path_1812" data-name="Path 1812" d="M245.253,236.93a14.349,14.349,0,0,0-4.609-3.062,10.965,10.965,0,0,0-5.355-.633c.545,2.056,1.1,4.15,1.86,6.16C239.8,238.7,242.578,237.3,245.253,236.93Z" fill="#ad7a5a"/>
      <path id="Path_1813" data-name="Path 1813" d="M231.677,198.188l11.044-4.444a34.5,34.5,0,0,1,5.926,1.885c1.347.808,12.391,14.143,12.391,14.143s-9.562,7.946-13.872,8.889l-7.543-9.7Z" fill="#ffb41d"/>
      <path id="Path_1814" data-name="Path 1814" d="M205.547,201.351s-.614,2.327-1.649,5.826c-.953,3.225-2.254,7.459-3.773,11.775-3.475,9.972-8.033,20.421-11.751,20.179-4.687-.3-11.063-16.106-14.821-26.717-.452-1.277-.864-2.473-1.228-3.556s-.695-2.077-.97-2.909c-.614-1.875-.961-3.006-.961-3.006l9.358,1.2,1.349.17a34.958,34.958,0,0,0,1.3,6.044c.016.057.033.122.049.178a62.929,62.929,0,0,0,5.317,12.211l1.366-5.859,2.352-10.118,1.761-7.572a5.973,5.973,0,0,1,4.833-4.735l6.255-.849Z" fill="#f2bb9d"/>
      <path id="Path_1815" data-name="Path 1815" d="M203.9,207.177c-.953,3.225-2.254,7.459-3.773,11.775a38.641,38.641,0,0,1-10.991-2.069l2.352-10.118,12.041-.363S203.672,206.693,203.9,207.177Z" fill="#d3a18c"/>
      <path id="Path_1816" data-name="Path 1816" d="M182.4,210.353c-4.848.21-8.041-.573-10.077-1.495-.372-1.091-.695-2.077-.97-2.909l8.4-1.81,1.349.17A34.958,34.958,0,0,0,182.4,210.353Z" fill="#d3a18c"/>
      <g id="Group_958" data-name="Group 958">
        <path id="Path_1817" data-name="Path 1817" d="M186.6,198.435c-.033,1.411.336,3.42-.089,4.775a6.164,6.164,0,0,1-1.277,2.112,7.348,7.348,0,0,1-.663.657,4.048,4.048,0,0,1-3.813,1.17,1.93,1.93,0,0,1-.333-.141l-3.305-1.7,1.536-9.723c-1.422-.081-2.539-.837-2.57-3.021A10.469,10.469,0,0,1,177.4,186.7a3.845,3.845,0,0,1,1.47-1.477c-3.128-6.1.14-9,2.016-10.078a.872.872,0,0,1,1.3.623l1.105,8.068,1.155,7.96.5.431a4.468,4.468,0,0,1,1.026,2.162A22.617,22.617,0,0,1,186.6,198.435Z" fill="#f2bb9d"/>
        <path id="Path_1818" data-name="Path 1818" d="M184.694,201.065a14.307,14.307,0,0,1-.121,4.914,4.048,4.048,0,0,1-3.813,1.17,1.93,1.93,0,0,1-.333-.141l-3.305-1.7,1.536-9.723c-1.422-.081-2.539-.837-2.57-3.021A10.469,10.469,0,0,1,177.4,186.7c1.572.274,4.133.826,4.917,1.586a8.505,8.505,0,0,1,1.949,6.542A26.572,26.572,0,0,0,184.694,201.065Z" fill="#d3a18c"/>
        <path id="Path_1819" data-name="Path 1819" d="M181.108,189.091l-5.072-1.112-4.791.53a4.367,4.367,0,0,0-3.823,3.606l-.2,1.184-.087,4.773.458,5.254.561,1.62a4.363,4.363,0,0,0,4.1,2.935l6.448.032,3.1-.195a1.665,1.665,0,0,0,1.558-1.755l-.846-15.222A1.792,1.792,0,0,0,181.108,189.091Z" fill="#f2bb9d"/>
        <g id="Group_955" data-name="Group 955">
          <path id="Path_1820" data-name="Path 1820" d="M183.191,194.694a.454.454,0,0,1-.1-.006c-.424-.035-4.98-.282-8.007-.443a.449.449,0,0,1-.424-.472.455.455,0,0,1,.472-.424l4.032.218c2.163.117,3.275.178,3.847.259a.456.456,0,0,1,.129-.027l0,.048c.475.082.475.191.476.4A.452.452,0,0,1,183.191,194.694Z" fill="#d3a18c"/>
        </g>
        <g id="Group_956" data-name="Group 956">
          <path id="Path_1821" data-name="Path 1821" d="M183.612,199.61a.465.465,0,0,1-.106-.005c-.423-.035-4.98-.282-8.006-.444a.449.449,0,1,1,.047-.9l4.033.218c2.162.118,3.275.178,3.847.26a.418.418,0,0,1,.129-.028l0,.048c.474.083.475.191.476.4A.451.451,0,0,1,183.612,199.61Z" fill="#d3a18c"/>
        </g>
        <g id="Group_957" data-name="Group 957">
          <path id="Path_1822" data-name="Path 1822" d="M183.564,204.219a.466.466,0,0,1-.106-.006c-.423-.035-4.98-.282-8.006-.443a.449.449,0,1,1,.047-.9l4.033.218c2.162.117,3.275.178,3.847.259a.448.448,0,0,1,.129-.027l0,.048c.474.082.475.191.476.4A.452.452,0,0,1,183.564,204.219Z" fill="#d3a18c"/>
        </g>
      </g>
      <path id="Path_1823" data-name="Path 1823" d="M205.749,196.033l-3.826-2.963s-7.151,1.347-7.959,3.367l-6.734,16.028s9.125,5.691,14.782,5.893S205.749,196.033,205.749,196.033Z" fill="#ffb41d"/>
      <path id="Path_1824" data-name="Path 1824" d="M218.34,386.21v14.013H184.4v-.033a4.136,4.136,0,0,1,.041-.549,3.046,3.046,0,0,1,.105-.477,3.841,3.841,0,0,1,2-2.424l13.892-6.8,9.285-4.541Z" fill="#fff"/>
      <rect id="Rectangle_211" data-name="Rectangle 211" width="33.941" height="2.416" transform="translate(184.398 400.19)" fill="#bad0d8"/>
      <path id="Path_1825" data-name="Path 1825" d="M260.9,399.851v.372H234.5V397.33l1.487-2.627,5.059-4.808,11.241-.986,7.54,8.162a4.039,4.039,0,0,1,1.01,2.093,3.23,3.23,0,0,1,.057.477A1.844,1.844,0,0,1,260.9,399.851Z" fill="#fff"/>
      <path id="Path_1826" data-name="Path 1826" d="M221.031,393.055l-.251,2.755-2.1.5s-7.176-5.64-9.051-6.481c-1.261-.565-4.727-.743-6.861-.8l-2.448.954.1-2.085.93-1.713L204.5,359.3l.251-9.35-2.683-73.079-.412-11.241,17.326-.986-.145,10.264-.76,52.859.808,46.888,1.932,7.418-1.285,8.607Z" fill="#0e354f"/>
      <path id="Path_1827" data-name="Path 1827" d="M253.655,386.574l-.161,3.887-11.581.873-7.41,5.592-1.115-.5-.525-2.723,1.261-2.513-2.142-8.429,1.18-7.572L224.3,274.212l-.832-9.487,17.237-.542.42,7.548,4.808,86.728,5.818,26.434Z" fill="#0e354f"/>
      <rect id="Rectangle_212" data-name="Rectangle 212" width="26.399" height="2.421" transform="translate(234.505 400.19)" fill="#bad0d8"/>
      <g id="Group_959" data-name="Group 959">
        <path id="Path_1828" data-name="Path 1828" d="M245.506,392.6a.808.808,0,0,1-.485-1.375c.1-.1,2.474-2.407,6.926-.774a.808.808,0,1,1-.557,1.517c-3.5-1.283-5.21.382-5.226.4A.808.808,0,0,1,245.506,392.6Z" fill="#bad0d8"/>
      </g>
      <g id="Group_960" data-name="Group 960">
        <path id="Path_1829" data-name="Path 1829" d="M246.324,394.8a.808.808,0,0,1-.413-1.411c.106-.092,2.639-2.225,6.964-.27a.808.808,0,1,1-.665,1.473c-3.4-1.531-5.223,0-5.242.019A.809.809,0,0,1,246.324,394.8Z" fill="#bad0d8"/>
      </g>
      <path id="Path_1830" data-name="Path 1830" d="M201.652,265.629l17.326-.986-.279,6.114c-6.57.824-12.647,1.519-16.768,1.964Z" fill="#0c2b3d"/>
      <path id="Path_1831" data-name="Path 1831" d="M240.705,269.2c-5.043.857-10.975,1.705-16.826,2.481l-.416-6.954,17.238-.541Z" fill="#0c2b3d"/>
      <path id="Path_1832" data-name="Path 1832" d="M222.337,191.454l-20.414,1.616s-2.437,18.587-2.437,24.244,1.212,51.451,1.212,51.451h44.851s-4.627-50.373-4.018-54.414,1.19-20.607,1.19-20.607l-13.377-1.751Z" fill="#ffb41d"/>
      <path id="Path_1833" data-name="Path 1833" d="M219.449,195.588l-1.588,12.853,2.636.176,1.36-13.543Z" fill="#0e354f"/>
      <path id="Path_1834" data-name="Path 1834" d="M230.128,174.618a45.229,45.229,0,0,0-.97,6.522c-.655,6.505-1.051,14.893-1.051,14.893l-8.148,5.927-3.772-7.543c-.266-2.368.13-3.661.437-6.877.4-4.186.978-7.871.978-7.871Z" fill="#f2bb9d"/>
      <path id="Path_1835" data-name="Path 1835" d="M230.128,174.618a45.229,45.229,0,0,0-.97,6.522c-1.552,1.931-5,4.687-12.534,6.4.4-4.186.978-7.871.978-7.871Z" fill="#d3a18c"/>
      <path id="Path_1836" data-name="Path 1836" d="M203.933,157.059c-.4,0-10.373-3.111-10.238-20.35l1.616,1.944a24.463,24.463,0,0,1,9.43-11.925l-.134,2.463a43.588,43.588,0,0,1,10.912-4.407l-1.078,1.555s13.606-4.8,22.228,8.944a11.9,11.9,0,0,1,7.948,2.333h-1.751s3.637,7.129,1.616,13.221-5.658,12.573-6.2,12.444S203.933,157.059,203.933,157.059Z" fill="#21283a"/>
      <path id="Path_1837" data-name="Path 1837" d="M204.64,145.3a6.9,6.9,0,0,0-.671,2.232,43.427,43.427,0,0,0-1.159,5.491,82.453,82.453,0,0,0-.765,8.29c-.038,1.057-.048,2.152,0,3.21.081,1.757.093,3.608.253,5.351.362,3.963.693,8.665,4.182,11.326,3.29,2.509,8.067,2.346,11.968,2.014.825-.07,1.647-.164,2.466-.277,7.137-.981,12.822-6.506,13.469-13.415.028-.292.049-.588.063-.89l.1-23.527v-1.652h-28.29Z" fill="#f2bb9d"/>
      <path id="Path_1838" data-name="Path 1838" d="M233.234,161.308s1.05-5.937,5.044-5.48,4.2,11.3-4.414,12.216Z" fill="#f2bb9d"/>
      <path id="Path_1839" data-name="Path 1839" d="M202.721,142.93s8.217,7.518,22.5,3.889c0,0,1.172,2.545,6.425,4.06l-.3,13.839,4.925-8.7V141.116H204.337Z" fill="#21283a"/>
      <g id="Group_964" data-name="Group 964">
        <path id="Path_1840" data-name="Path 1840" d="M247.936,241.51l1.149,4.044-.049,1.394a4.41,4.41,0,0,1-3.07,3.648l-6.217,2.342-3.046.972a1.607,1.607,0,0,1-1.977-.605,2.647,2.647,0,0,1-.258-.512,3.362,3.362,0,0,1-.194-.755.6.6,0,0,1-.019-.1l-.127-.378a1.306,1.306,0,0,1-.781.093l-.006,0c-.349-.077-.732-.347-1-1.052a3.268,3.268,0,0,1-.218-1.552,2.27,2.27,0,0,1,.23-.782c-.113.049-.221.091-.315.134l-.44.188a1.3,1.3,0,0,1-.311.106c-.418.086-1.159.052-1.59-1.087a3.419,3.419,0,0,1-.209-1.8,1.377,1.377,0,0,1,.429-.752,1.636,1.636,0,0,1,.431-.279l.469-.2a1.192,1.192,0,0,1-.431-.227,1.821,1.821,0,0,1-.513-.782,3.022,3.022,0,0,1-.13-1.951,1.158,1.158,0,0,1,.657-.717l10.663-4.957a4.372,4.372,0,0,1,4.787,1.282l.553.8Z" fill="#f2bb9d"/>
        <g id="Group_961" data-name="Group 961">
          <path id="Path_1841" data-name="Path 1841" d="M241.01,239.621a.324.324,0,0,1-.176.421,5.666,5.666,0,0,0-.617.311c-.1.06-.211.122-.319.184-.574.3-1.162.593-1.758.885-.962.476-1.96.97-2.864,1.5a43.972,43.972,0,0,1-4.714,2.031,1.618,1.618,0,0,1-.57.121.607.607,0,0,1-.073-.017,1.636,1.636,0,0,1,.431-.279l.469-.2a1.192,1.192,0,0,1-.431-.227,42.556,42.556,0,0,0,4.564-1.977c.926-.546,1.93-1.042,2.9-1.528.589-.289,1.173-.577,1.745-.881.1-.052.2-.111.3-.165a4.871,4.871,0,0,1,.69-.356A.33.33,0,0,1,241.01,239.621Z" fill="#d3a18c"/>
        </g>
        <g id="Group_962" data-name="Group 962">
          <path id="Path_1842" data-name="Path 1842" d="M232.04,248.4l-.44.188a1.3,1.3,0,0,1-.311.106.316.316,0,0,1,.258-.123A3.01,3.01,0,0,0,232.04,248.4Z" fill="#ad7a5a"/>
          <path id="Path_1843" data-name="Path 1843" d="M242.29,243.312a.322.322,0,0,1-.16.43,4.61,4.61,0,0,0-.6.34c-.1.06-.209.128-.312.187-.563.329-1.145.643-1.725.963-.937.515-1.916,1.044-2.8,1.617a45.551,45.551,0,0,1-4.566,2.2,2.27,2.27,0,0,1,.23-.782,43.687,43.687,0,0,0,3.989-1.956c.907-.586,1.891-1.123,2.839-1.642.58-.321,1.156-.633,1.708-.957.1-.054.2-.118.295-.176a6.111,6.111,0,0,1,.681-.386A.324.324,0,0,1,242.29,243.312Z" fill="#d3a18c"/>
        </g>
        <g id="Group_963" data-name="Group 963">
          <path id="Path_1844" data-name="Path 1844" d="M244.387,247.067a.319.319,0,0,1-.185.417,4.544,4.544,0,0,0-.62.3c-.109.062-.219.118-.324.171-.581.294-1.175.571-1.775.851-.974.459-1.98.929-2.9,1.444-.35.193-2.845,1.287-4.313,1.789a.6.6,0,0,1-.019-.1l-.127-.378a1.306,1.306,0,0,1-.781.093,37.263,37.263,0,0,0,4.92-1.961c.944-.532,1.962-1.005,2.943-1.467.593-.277,1.187-.554,1.763-.846.1-.046.2-.1.3-.157a5.986,5.986,0,0,1,.7-.339A.3.3,0,0,1,244.387,247.067Z" fill="#d3a18c"/>
        </g>
      </g>
      <g id="Group_965" data-name="Group 965">
        <path id="Path_1845" data-name="Path 1845" d="M196.928,396.449a.81.81,0,0,1-.642-.315,4.794,4.794,0,0,0-3.772-1.662c-.378-.01-1.42.239-1.707.016-.469-.363.967-1.022,1.23-1.144,1.948-.909,4.313.222,5.531,1.8a.809.809,0,0,1-.64,1.3Z" fill="#bad0d8"/>
      </g>
      <g id="Group_966" data-name="Group 966">
        <path id="Path_1846" data-name="Path 1846" d="M200.32,394.467a.809.809,0,0,1-.641-.315,4.464,4.464,0,0,0-2.947-1.593,3.685,3.685,0,0,0-1.323-.042c-.443.111-.916.469-1.4.355-.557-.13-.045-.924.2-1.162a4.13,4.13,0,0,1,3.556-.6,5.831,5.831,0,0,1,3.2,2.054.809.809,0,0,1-.64,1.3Z" fill="#bad0d8"/>
      </g>
      <g id="Group_967" data-name="Group 967">
        <path id="Path_1847" data-name="Path 1847" d="M203.713,392.485a.81.81,0,0,1-.642-.316,4.03,4.03,0,0,0-3.518-1.577c-.259.055-.511.089-.774.158-.225.059-.473.282-.68.3-.7.077-.353-.837-.07-1.113,1.855-1.812,4.974-.513,6.324,1.242a.809.809,0,0,1-.64,1.3Z" fill="#bad0d8"/>
      </g>
      <path id="Path_1848" data-name="Path 1848" d="M218.34,399.164v.477h-33.9a3.046,3.046,0,0,1,.105-.477Z" fill="#bad0d8"/>
      <path id="Path_1849" data-name="Path 1849" d="M260.9,399.641H234.5v-.477h26.337A3.23,3.23,0,0,1,260.9,399.641Z" fill="#bad0d8"/>
    </g>
    <path id="Path_1850" data-name="Path 1850" d="M336.875,191.005c-1.241,3.89-1.662,8.338-2.176,12.388a65.4,65.4,0,0,0-.593,10.419c0,.772,5.418.985,5.561.389.9-3.742,2.122-3.5,2.856-7.244.825-4.207,1.283-8.616.1-12.8a9.125,9.125,0,0,0-1.054-2.487,5.492,5.492,0,0,0-2.417-2.165C337.806,189.026,337.254,189.819,336.875,191.005Z" fill="#e94f24"/>
    <path id="Path_1851" data-name="Path 1851" d="M324.131,206.46l1.067-.839s6.881-1.544,6.914-1.4C332.155,204.406,329.652,205.836,324.131,206.46Z" fill="#c42110"/>
    <g id="Group_969" data-name="Group 969">
      <path id="Path_1852" data-name="Path 1852" d="M334.106,213.812c-.135.507-4.454,2.431-7.122.67-2.563-1.69-1.615-16.771-1.615-16.771l3.962.232Z" fill="#f2bb9d"/>
      <path id="Path_1853" data-name="Path 1853" d="M329.954,194.7a1.179,1.179,0,0,0-.186,1.1.859.859,0,0,0,.522.514,1.664,1.664,0,0,0,.175.056h.008c.011,0,.022,0,.037.008a2.832,2.832,0,0,0,.929.071c.317-.056.515-.336.8-.433,1.138-.384,1.411,1.015.832,1.634a1.168,1.168,0,0,1-.265.205c-.488.4-1.182.366-1.682.709a3.673,3.673,0,0,0-.866,1.317,4.909,4.909,0,0,1-.791,1.1,3.28,3.28,0,0,1-4.831-.191,6.168,6.168,0,0,1-1.1-2.671,31.033,31.033,0,0,1-.3-4.145c-.489-2.4-1.082-6.357.227-6.734,1.638-.474.776,2.8,1.463,6.421.116,0,.231-.012.351-.019-.2-2.347-.493-8.171,1.328-8.484,2.156-.373.119,3.846.7,8.365.388-2.78,1.235-7.029,2.806-7.052,1.806-.026.216,2.638-.582,6.19a4.012,4.012,0,0,1,.712-.25,2.472,2.472,0,0,1,1.288-.071,2.658,2.658,0,0,1,2.175,2.074c.029.411-.03.978-.444,1.19-.885.448-1.149-.522-1.605-.959A1.133,1.133,0,0,0,329.954,194.7Z" fill="#f2bb9d"/>
    </g>
    <path id="Path_1854" data-name="Path 1854" d="M324.131,206.46s7.472-1.409,7.981-2.24l1.769,7.612a1.062,1.062,0,0,0,1.208.808l3.407-.562c1.171-3.076,4.682-4.6,4.257-3.63l-3.086,11.069c-.816,2.275-7.394,5.483-11.431.705Z" fill="#e94f24"/>
    <path id="Path_1855" data-name="Path 1855" d="M334.115,212.244a19.837,19.837,0,0,1,2.445,2.8l1.26,2.033s.539-2.359-3.661-6.848Z" fill="#c42110"/>
    <path id="Path_1856" data-name="Path 1856" d="M221.738,170.536s-.21,2.143-5.751,2.338c-4.374.155-4.477-1.64-4.477-1.64" fill="#fff"/>
    <g id="Group_970" data-name="Group 970">
      <path id="Path_1857" data-name="Path 1857" d="M311.191,75.434,260.112,95.726l10.758,2.886,6.21,14.869,10.233-10.146,7.347,2.449Z" fill="#ffb41d"/>
      <path id="Path_1858" data-name="Path 1858" d="M311.153,75.434,270.87,98.612l6.21,14.869,1.1-13.732Z" fill="#f29c03"/>
      <path id="Path_1859" data-name="Path 1859" d="M287.313,103.335l-9.133-3.586-1.1,13.732Z" fill="#e29817"/>
    </g>
    <g id="Group_971" data-name="Group 971">
      <path id="Path_1860" data-name="Path 1860" d="M414.678,194.952l-30.9,12.275,6.508,1.746,3.757,8.995,6.191-6.138,4.444,1.482Z" fill="#e94f24"/>
      <path id="Path_1861" data-name="Path 1861" d="M414.655,194.952l-24.369,14.021,3.757,8.995.665-8.307Z" fill="#dd2905"/>
      <path id="Path_1862" data-name="Path 1862" d="M400.233,211.831l-5.525-2.169-.665,8.307Z" fill="#c42110"/>
    </g>
    <g id="Group_972" data-name="Group 972">
      <path id="Path_1863" data-name="Path 1863" d="M116.949,150.415l-30.9,12.275,6.508,1.746,3.757,8.995,6.191-6.138,4.444,1.482Z" fill="#00679e"/>
      <path id="Path_1864" data-name="Path 1864" d="M116.927,150.415,92.558,164.437l3.757,8.995.665-8.307Z" fill="#008ebf"/>
      <path id="Path_1865" data-name="Path 1865" d="M102.5,167.294l-5.525-2.169-.665,8.307Z" fill="#00567c"/>
    </g>
  </g>
</svg>
